%TF.GenerationSoftware,KiCad,Pcbnew,(6.0.4-0)*%
%TF.CreationDate,2022-09-18T19:18:22-04:00*%
%TF.ProjectId,Z80-6502IO,5a38302d-3635-4303-9249-4f2e6b696361,rev?*%
%TF.SameCoordinates,Original*%
%TF.FileFunction,OtherDrawing,Comment*%
%FSLAX46Y46*%
G04 Gerber Fmt 4.6, Leading zero omitted, Abs format (unit mm)*
G04 Created by KiCad (PCBNEW (6.0.4-0)) date 2022-09-18 19:18:22*
%MOMM*%
%LPD*%
G01*
G04 APERTURE LIST*
%ADD10C,0.150000*%
%ADD11C,0.300000*%
%ADD12C,0.200000*%
G04 APERTURE END LIST*
D10*
X42309523Y-36802380D02*
X42928571Y-36802380D01*
X42595238Y-37183333D01*
X42738095Y-37183333D01*
X42833333Y-37230952D01*
X42880952Y-37278571D01*
X42928571Y-37373809D01*
X42928571Y-37611904D01*
X42880952Y-37707142D01*
X42833333Y-37754761D01*
X42738095Y-37802380D01*
X42452380Y-37802380D01*
X42357142Y-37754761D01*
X42309523Y-37707142D01*
X43357142Y-37707142D02*
X43404761Y-37754761D01*
X43357142Y-37802380D01*
X43309523Y-37754761D01*
X43357142Y-37707142D01*
X43357142Y-37802380D01*
X44023809Y-36802380D02*
X44119047Y-36802380D01*
X44214285Y-36850000D01*
X44261904Y-36897619D01*
X44309523Y-36992857D01*
X44357142Y-37183333D01*
X44357142Y-37421428D01*
X44309523Y-37611904D01*
X44261904Y-37707142D01*
X44214285Y-37754761D01*
X44119047Y-37802380D01*
X44023809Y-37802380D01*
X43928571Y-37754761D01*
X43880952Y-37707142D01*
X43833333Y-37611904D01*
X43785714Y-37421428D01*
X43785714Y-37183333D01*
X43833333Y-36992857D01*
X43880952Y-36897619D01*
X43928571Y-36850000D01*
X44023809Y-36802380D01*
X44976190Y-36802380D02*
X45071428Y-36802380D01*
X45166666Y-36850000D01*
X45214285Y-36897619D01*
X45261904Y-36992857D01*
X45309523Y-37183333D01*
X45309523Y-37421428D01*
X45261904Y-37611904D01*
X45214285Y-37707142D01*
X45166666Y-37754761D01*
X45071428Y-37802380D01*
X44976190Y-37802380D01*
X44880952Y-37754761D01*
X44833333Y-37707142D01*
X44785714Y-37611904D01*
X44738095Y-37421428D01*
X44738095Y-37183333D01*
X44785714Y-36992857D01*
X44833333Y-36897619D01*
X44880952Y-36850000D01*
X44976190Y-36802380D01*
X45928571Y-36802380D02*
X46023809Y-36802380D01*
X46119047Y-36850000D01*
X46166666Y-36897619D01*
X46214285Y-36992857D01*
X46261904Y-37183333D01*
X46261904Y-37421428D01*
X46214285Y-37611904D01*
X46166666Y-37707142D01*
X46119047Y-37754761D01*
X46023809Y-37802380D01*
X45928571Y-37802380D01*
X45833333Y-37754761D01*
X45785714Y-37707142D01*
X45738095Y-37611904D01*
X45690476Y-37421428D01*
X45690476Y-37183333D01*
X45738095Y-36992857D01*
X45785714Y-36897619D01*
X45833333Y-36850000D01*
X45928571Y-36802380D01*
X46880952Y-36802380D02*
X46976190Y-36802380D01*
X47071428Y-36850000D01*
X47119047Y-36897619D01*
X47166666Y-36992857D01*
X47214285Y-37183333D01*
X47214285Y-37421428D01*
X47166666Y-37611904D01*
X47119047Y-37707142D01*
X47071428Y-37754761D01*
X46976190Y-37802380D01*
X46880952Y-37802380D01*
X46785714Y-37754761D01*
X46738095Y-37707142D01*
X46690476Y-37611904D01*
X46642857Y-37421428D01*
X46642857Y-37183333D01*
X46690476Y-36992857D01*
X46738095Y-36897619D01*
X46785714Y-36850000D01*
X46880952Y-36802380D01*
X48404761Y-37802380D02*
X48404761Y-37135714D01*
X48404761Y-37230952D02*
X48452380Y-37183333D01*
X48547619Y-37135714D01*
X48690476Y-37135714D01*
X48785714Y-37183333D01*
X48833333Y-37278571D01*
X48833333Y-37802380D01*
X48833333Y-37278571D02*
X48880952Y-37183333D01*
X48976190Y-37135714D01*
X49119047Y-37135714D01*
X49214285Y-37183333D01*
X49261904Y-37278571D01*
X49261904Y-37802380D01*
X49738095Y-37802380D02*
X49738095Y-37135714D01*
X49738095Y-37230952D02*
X49785714Y-37183333D01*
X49880952Y-37135714D01*
X50023809Y-37135714D01*
X50119047Y-37183333D01*
X50166666Y-37278571D01*
X50166666Y-37802380D01*
X50166666Y-37278571D02*
X50214285Y-37183333D01*
X50309523Y-37135714D01*
X50452380Y-37135714D01*
X50547619Y-37183333D01*
X50595238Y-37278571D01*
X50595238Y-37802380D01*
X45000000Y-49000000D02*
X45000000Y-37913580D01*
X48000000Y-49000000D02*
X48000000Y-37913580D01*
X45000000Y-38500000D02*
X48000000Y-38500000D01*
X45000000Y-38500000D02*
X48000000Y-38500000D01*
X45000000Y-38500000D02*
X46126504Y-39086421D01*
X45000000Y-38500000D02*
X46126504Y-37913579D01*
X48000000Y-38500000D02*
X46873496Y-37913579D01*
X48000000Y-38500000D02*
X46873496Y-39086421D01*
X39802380Y-51690476D02*
X39802380Y-51071428D01*
X40183333Y-51404761D01*
X40183333Y-51261904D01*
X40230952Y-51166666D01*
X40278571Y-51119047D01*
X40373809Y-51071428D01*
X40611904Y-51071428D01*
X40707142Y-51119047D01*
X40754761Y-51166666D01*
X40802380Y-51261904D01*
X40802380Y-51547619D01*
X40754761Y-51642857D01*
X40707142Y-51690476D01*
X40707142Y-50642857D02*
X40754761Y-50595238D01*
X40802380Y-50642857D01*
X40754761Y-50690476D01*
X40707142Y-50642857D01*
X40802380Y-50642857D01*
X39802380Y-49976190D02*
X39802380Y-49880952D01*
X39850000Y-49785714D01*
X39897619Y-49738095D01*
X39992857Y-49690476D01*
X40183333Y-49642857D01*
X40421428Y-49642857D01*
X40611904Y-49690476D01*
X40707142Y-49738095D01*
X40754761Y-49785714D01*
X40802380Y-49880952D01*
X40802380Y-49976190D01*
X40754761Y-50071428D01*
X40707142Y-50119047D01*
X40611904Y-50166666D01*
X40421428Y-50214285D01*
X40183333Y-50214285D01*
X39992857Y-50166666D01*
X39897619Y-50119047D01*
X39850000Y-50071428D01*
X39802380Y-49976190D01*
X39802380Y-49023809D02*
X39802380Y-48928571D01*
X39850000Y-48833333D01*
X39897619Y-48785714D01*
X39992857Y-48738095D01*
X40183333Y-48690476D01*
X40421428Y-48690476D01*
X40611904Y-48738095D01*
X40707142Y-48785714D01*
X40754761Y-48833333D01*
X40802380Y-48928571D01*
X40802380Y-49023809D01*
X40754761Y-49119047D01*
X40707142Y-49166666D01*
X40611904Y-49214285D01*
X40421428Y-49261904D01*
X40183333Y-49261904D01*
X39992857Y-49214285D01*
X39897619Y-49166666D01*
X39850000Y-49119047D01*
X39802380Y-49023809D01*
X39802380Y-48071428D02*
X39802380Y-47976190D01*
X39850000Y-47880952D01*
X39897619Y-47833333D01*
X39992857Y-47785714D01*
X40183333Y-47738095D01*
X40421428Y-47738095D01*
X40611904Y-47785714D01*
X40707142Y-47833333D01*
X40754761Y-47880952D01*
X40802380Y-47976190D01*
X40802380Y-48071428D01*
X40754761Y-48166666D01*
X40707142Y-48214285D01*
X40611904Y-48261904D01*
X40421428Y-48309523D01*
X40183333Y-48309523D01*
X39992857Y-48261904D01*
X39897619Y-48214285D01*
X39850000Y-48166666D01*
X39802380Y-48071428D01*
X39802380Y-47119047D02*
X39802380Y-47023809D01*
X39850000Y-46928571D01*
X39897619Y-46880952D01*
X39992857Y-46833333D01*
X40183333Y-46785714D01*
X40421428Y-46785714D01*
X40611904Y-46833333D01*
X40707142Y-46880952D01*
X40754761Y-46928571D01*
X40802380Y-47023809D01*
X40802380Y-47119047D01*
X40754761Y-47214285D01*
X40707142Y-47261904D01*
X40611904Y-47309523D01*
X40421428Y-47357142D01*
X40183333Y-47357142D01*
X39992857Y-47309523D01*
X39897619Y-47261904D01*
X39850000Y-47214285D01*
X39802380Y-47119047D01*
X40802380Y-45595238D02*
X40135714Y-45595238D01*
X40230952Y-45595238D02*
X40183333Y-45547619D01*
X40135714Y-45452380D01*
X40135714Y-45309523D01*
X40183333Y-45214285D01*
X40278571Y-45166666D01*
X40802380Y-45166666D01*
X40278571Y-45166666D02*
X40183333Y-45119047D01*
X40135714Y-45023809D01*
X40135714Y-44880952D01*
X40183333Y-44785714D01*
X40278571Y-44738095D01*
X40802380Y-44738095D01*
X40802380Y-44261904D02*
X40135714Y-44261904D01*
X40230952Y-44261904D02*
X40183333Y-44214285D01*
X40135714Y-44119047D01*
X40135714Y-43976190D01*
X40183333Y-43880952D01*
X40278571Y-43833333D01*
X40802380Y-43833333D01*
X40278571Y-43833333D02*
X40183333Y-43785714D01*
X40135714Y-43690476D01*
X40135714Y-43547619D01*
X40183333Y-43452380D01*
X40278571Y-43404761D01*
X40802380Y-43404761D01*
X48000000Y-46000000D02*
X40913580Y-46000000D01*
X48000000Y-49000000D02*
X40913580Y-49000000D01*
X41500000Y-46000000D02*
X41500000Y-49000000D01*
X41500000Y-46000000D02*
X41500000Y-49000000D01*
X41500000Y-46000000D02*
X40913579Y-47126504D01*
X41500000Y-46000000D02*
X42086421Y-47126504D01*
X41500000Y-49000000D02*
X42086421Y-47873496D01*
X41500000Y-49000000D02*
X40913579Y-47873496D01*
X151052380Y-51690476D02*
X151052380Y-51071428D01*
X151433333Y-51404761D01*
X151433333Y-51261904D01*
X151480952Y-51166666D01*
X151528571Y-51119047D01*
X151623809Y-51071428D01*
X151861904Y-51071428D01*
X151957142Y-51119047D01*
X152004761Y-51166666D01*
X152052380Y-51261904D01*
X152052380Y-51547619D01*
X152004761Y-51642857D01*
X151957142Y-51690476D01*
X151957142Y-50642857D02*
X152004761Y-50595238D01*
X152052380Y-50642857D01*
X152004761Y-50690476D01*
X151957142Y-50642857D01*
X152052380Y-50642857D01*
X151052380Y-49976190D02*
X151052380Y-49880952D01*
X151100000Y-49785714D01*
X151147619Y-49738095D01*
X151242857Y-49690476D01*
X151433333Y-49642857D01*
X151671428Y-49642857D01*
X151861904Y-49690476D01*
X151957142Y-49738095D01*
X152004761Y-49785714D01*
X152052380Y-49880952D01*
X152052380Y-49976190D01*
X152004761Y-50071428D01*
X151957142Y-50119047D01*
X151861904Y-50166666D01*
X151671428Y-50214285D01*
X151433333Y-50214285D01*
X151242857Y-50166666D01*
X151147619Y-50119047D01*
X151100000Y-50071428D01*
X151052380Y-49976190D01*
X151052380Y-49023809D02*
X151052380Y-48928571D01*
X151100000Y-48833333D01*
X151147619Y-48785714D01*
X151242857Y-48738095D01*
X151433333Y-48690476D01*
X151671428Y-48690476D01*
X151861904Y-48738095D01*
X151957142Y-48785714D01*
X152004761Y-48833333D01*
X152052380Y-48928571D01*
X152052380Y-49023809D01*
X152004761Y-49119047D01*
X151957142Y-49166666D01*
X151861904Y-49214285D01*
X151671428Y-49261904D01*
X151433333Y-49261904D01*
X151242857Y-49214285D01*
X151147619Y-49166666D01*
X151100000Y-49119047D01*
X151052380Y-49023809D01*
X151052380Y-48071428D02*
X151052380Y-47976190D01*
X151100000Y-47880952D01*
X151147619Y-47833333D01*
X151242857Y-47785714D01*
X151433333Y-47738095D01*
X151671428Y-47738095D01*
X151861904Y-47785714D01*
X151957142Y-47833333D01*
X152004761Y-47880952D01*
X152052380Y-47976190D01*
X152052380Y-48071428D01*
X152004761Y-48166666D01*
X151957142Y-48214285D01*
X151861904Y-48261904D01*
X151671428Y-48309523D01*
X151433333Y-48309523D01*
X151242857Y-48261904D01*
X151147619Y-48214285D01*
X151100000Y-48166666D01*
X151052380Y-48071428D01*
X151052380Y-47119047D02*
X151052380Y-47023809D01*
X151100000Y-46928571D01*
X151147619Y-46880952D01*
X151242857Y-46833333D01*
X151433333Y-46785714D01*
X151671428Y-46785714D01*
X151861904Y-46833333D01*
X151957142Y-46880952D01*
X152004761Y-46928571D01*
X152052380Y-47023809D01*
X152052380Y-47119047D01*
X152004761Y-47214285D01*
X151957142Y-47261904D01*
X151861904Y-47309523D01*
X151671428Y-47357142D01*
X151433333Y-47357142D01*
X151242857Y-47309523D01*
X151147619Y-47261904D01*
X151100000Y-47214285D01*
X151052380Y-47119047D01*
X152052380Y-45595238D02*
X151385714Y-45595238D01*
X151480952Y-45595238D02*
X151433333Y-45547619D01*
X151385714Y-45452380D01*
X151385714Y-45309523D01*
X151433333Y-45214285D01*
X151528571Y-45166666D01*
X152052380Y-45166666D01*
X151528571Y-45166666D02*
X151433333Y-45119047D01*
X151385714Y-45023809D01*
X151385714Y-44880952D01*
X151433333Y-44785714D01*
X151528571Y-44738095D01*
X152052380Y-44738095D01*
X152052380Y-44261904D02*
X151385714Y-44261904D01*
X151480952Y-44261904D02*
X151433333Y-44214285D01*
X151385714Y-44119047D01*
X151385714Y-43976190D01*
X151433333Y-43880952D01*
X151528571Y-43833333D01*
X152052380Y-43833333D01*
X151528571Y-43833333D02*
X151433333Y-43785714D01*
X151385714Y-43690476D01*
X151385714Y-43547619D01*
X151433333Y-43452380D01*
X151528571Y-43404761D01*
X152052380Y-43404761D01*
X142000000Y-46000000D02*
X153336420Y-46000000D01*
X142000000Y-49000000D02*
X153336420Y-49000000D01*
X152750000Y-46000000D02*
X152750000Y-49000000D01*
X152750000Y-46000000D02*
X152750000Y-49000000D01*
X152750000Y-46000000D02*
X152163579Y-47126504D01*
X152750000Y-46000000D02*
X153336421Y-47126504D01*
X152750000Y-49000000D02*
X153336421Y-47873496D01*
X152750000Y-49000000D02*
X152163579Y-47873496D01*
X139309523Y-37302380D02*
X139928571Y-37302380D01*
X139595238Y-37683333D01*
X139738095Y-37683333D01*
X139833333Y-37730952D01*
X139880952Y-37778571D01*
X139928571Y-37873809D01*
X139928571Y-38111904D01*
X139880952Y-38207142D01*
X139833333Y-38254761D01*
X139738095Y-38302380D01*
X139452380Y-38302380D01*
X139357142Y-38254761D01*
X139309523Y-38207142D01*
X140357142Y-38207142D02*
X140404761Y-38254761D01*
X140357142Y-38302380D01*
X140309523Y-38254761D01*
X140357142Y-38207142D01*
X140357142Y-38302380D01*
X141023809Y-37302380D02*
X141119047Y-37302380D01*
X141214285Y-37350000D01*
X141261904Y-37397619D01*
X141309523Y-37492857D01*
X141357142Y-37683333D01*
X141357142Y-37921428D01*
X141309523Y-38111904D01*
X141261904Y-38207142D01*
X141214285Y-38254761D01*
X141119047Y-38302380D01*
X141023809Y-38302380D01*
X140928571Y-38254761D01*
X140880952Y-38207142D01*
X140833333Y-38111904D01*
X140785714Y-37921428D01*
X140785714Y-37683333D01*
X140833333Y-37492857D01*
X140880952Y-37397619D01*
X140928571Y-37350000D01*
X141023809Y-37302380D01*
X141976190Y-37302380D02*
X142071428Y-37302380D01*
X142166666Y-37350000D01*
X142214285Y-37397619D01*
X142261904Y-37492857D01*
X142309523Y-37683333D01*
X142309523Y-37921428D01*
X142261904Y-38111904D01*
X142214285Y-38207142D01*
X142166666Y-38254761D01*
X142071428Y-38302380D01*
X141976190Y-38302380D01*
X141880952Y-38254761D01*
X141833333Y-38207142D01*
X141785714Y-38111904D01*
X141738095Y-37921428D01*
X141738095Y-37683333D01*
X141785714Y-37492857D01*
X141833333Y-37397619D01*
X141880952Y-37350000D01*
X141976190Y-37302380D01*
X142928571Y-37302380D02*
X143023809Y-37302380D01*
X143119047Y-37350000D01*
X143166666Y-37397619D01*
X143214285Y-37492857D01*
X143261904Y-37683333D01*
X143261904Y-37921428D01*
X143214285Y-38111904D01*
X143166666Y-38207142D01*
X143119047Y-38254761D01*
X143023809Y-38302380D01*
X142928571Y-38302380D01*
X142833333Y-38254761D01*
X142785714Y-38207142D01*
X142738095Y-38111904D01*
X142690476Y-37921428D01*
X142690476Y-37683333D01*
X142738095Y-37492857D01*
X142785714Y-37397619D01*
X142833333Y-37350000D01*
X142928571Y-37302380D01*
X143880952Y-37302380D02*
X143976190Y-37302380D01*
X144071428Y-37350000D01*
X144119047Y-37397619D01*
X144166666Y-37492857D01*
X144214285Y-37683333D01*
X144214285Y-37921428D01*
X144166666Y-38111904D01*
X144119047Y-38207142D01*
X144071428Y-38254761D01*
X143976190Y-38302380D01*
X143880952Y-38302380D01*
X143785714Y-38254761D01*
X143738095Y-38207142D01*
X143690476Y-38111904D01*
X143642857Y-37921428D01*
X143642857Y-37683333D01*
X143690476Y-37492857D01*
X143738095Y-37397619D01*
X143785714Y-37350000D01*
X143880952Y-37302380D01*
X145404761Y-38302380D02*
X145404761Y-37635714D01*
X145404761Y-37730952D02*
X145452380Y-37683333D01*
X145547619Y-37635714D01*
X145690476Y-37635714D01*
X145785714Y-37683333D01*
X145833333Y-37778571D01*
X145833333Y-38302380D01*
X145833333Y-37778571D02*
X145880952Y-37683333D01*
X145976190Y-37635714D01*
X146119047Y-37635714D01*
X146214285Y-37683333D01*
X146261904Y-37778571D01*
X146261904Y-38302380D01*
X146738095Y-38302380D02*
X146738095Y-37635714D01*
X146738095Y-37730952D02*
X146785714Y-37683333D01*
X146880952Y-37635714D01*
X147023809Y-37635714D01*
X147119047Y-37683333D01*
X147166666Y-37778571D01*
X147166666Y-38302380D01*
X147166666Y-37778571D02*
X147214285Y-37683333D01*
X147309523Y-37635714D01*
X147452380Y-37635714D01*
X147547619Y-37683333D01*
X147595238Y-37778571D01*
X147595238Y-38302380D01*
X145000000Y-49000000D02*
X145000000Y-38413580D01*
X142000000Y-49000000D02*
X142000000Y-38413580D01*
X145000000Y-39000000D02*
X142000000Y-39000000D01*
X145000000Y-39000000D02*
X142000000Y-39000000D01*
X145000000Y-39000000D02*
X143873496Y-38413579D01*
X145000000Y-39000000D02*
X143873496Y-39586421D01*
X142000000Y-39000000D02*
X143126504Y-39586421D01*
X142000000Y-39000000D02*
X143126504Y-38413579D01*
D11*
X39021429Y-155928571D02*
X38950001Y-156071428D01*
X38878572Y-156142857D01*
X38735715Y-156214285D01*
X38664286Y-156214285D01*
X38521429Y-156142857D01*
X38450001Y-156071428D01*
X38378572Y-155928571D01*
X38378572Y-155642857D01*
X38450001Y-155500000D01*
X38521429Y-155428571D01*
X38664286Y-155357142D01*
X38735715Y-155357142D01*
X38878572Y-155428571D01*
X38950001Y-155500000D01*
X39021429Y-155642857D01*
X39021429Y-155928571D01*
X39092858Y-156071428D01*
X39164286Y-156142857D01*
X39307143Y-156214285D01*
X39592858Y-156214285D01*
X39735715Y-156142857D01*
X39807143Y-156071428D01*
X39878572Y-155928571D01*
X39878572Y-155642857D01*
X39807143Y-155500000D01*
X39735715Y-155428571D01*
X39592858Y-155357142D01*
X39307143Y-155357142D01*
X39164286Y-155428571D01*
X39092858Y-155500000D01*
X39021429Y-155642857D01*
X39735715Y-154714285D02*
X39807143Y-154642857D01*
X39878572Y-154714285D01*
X39807143Y-154785714D01*
X39735715Y-154714285D01*
X39878572Y-154714285D01*
X38378572Y-153714285D02*
X38378572Y-153571428D01*
X38450001Y-153428571D01*
X38521429Y-153357142D01*
X38664286Y-153285714D01*
X38950001Y-153214285D01*
X39307143Y-153214285D01*
X39592858Y-153285714D01*
X39735715Y-153357142D01*
X39807143Y-153428571D01*
X39878572Y-153571428D01*
X39878572Y-153714285D01*
X39807143Y-153857142D01*
X39735715Y-153928571D01*
X39592858Y-154000000D01*
X39307143Y-154071428D01*
X38950001Y-154071428D01*
X38664286Y-154000000D01*
X38521429Y-153928571D01*
X38450001Y-153857142D01*
X38378572Y-153714285D01*
X38378572Y-152285714D02*
X38378572Y-152142857D01*
X38450001Y-152000000D01*
X38521429Y-151928571D01*
X38664286Y-151857142D01*
X38950001Y-151785714D01*
X39307143Y-151785714D01*
X39592858Y-151857142D01*
X39735715Y-151928571D01*
X39807143Y-152000000D01*
X39878572Y-152142857D01*
X39878572Y-152285714D01*
X39807143Y-152428571D01*
X39735715Y-152500000D01*
X39592858Y-152571428D01*
X39307143Y-152642857D01*
X38950001Y-152642857D01*
X38664286Y-152571428D01*
X38521429Y-152500000D01*
X38450001Y-152428571D01*
X38378572Y-152285714D01*
X38378572Y-150857142D02*
X38378572Y-150714285D01*
X38450001Y-150571428D01*
X38521429Y-150500000D01*
X38664286Y-150428571D01*
X38950001Y-150357142D01*
X39307143Y-150357142D01*
X39592858Y-150428571D01*
X39735715Y-150500000D01*
X39807143Y-150571428D01*
X39878572Y-150714285D01*
X39878572Y-150857142D01*
X39807143Y-151000000D01*
X39735715Y-151071428D01*
X39592858Y-151142857D01*
X39307143Y-151214285D01*
X38950001Y-151214285D01*
X38664286Y-151142857D01*
X38521429Y-151071428D01*
X38450001Y-151000000D01*
X38378572Y-150857142D01*
X38378572Y-149428571D02*
X38378572Y-149285714D01*
X38450001Y-149142857D01*
X38521429Y-149071428D01*
X38664286Y-149000000D01*
X38950001Y-148928571D01*
X39307143Y-148928571D01*
X39592858Y-149000000D01*
X39735715Y-149071428D01*
X39807143Y-149142857D01*
X39878572Y-149285714D01*
X39878572Y-149428571D01*
X39807143Y-149571428D01*
X39735715Y-149642857D01*
X39592858Y-149714285D01*
X39307143Y-149785714D01*
X38950001Y-149785714D01*
X38664286Y-149714285D01*
X38521429Y-149642857D01*
X38450001Y-149571428D01*
X38378572Y-149428571D01*
X39878572Y-147142857D02*
X38878572Y-147142857D01*
X39021429Y-147142857D02*
X38950001Y-147071428D01*
X38878572Y-146928571D01*
X38878572Y-146714285D01*
X38950001Y-146571428D01*
X39092858Y-146500000D01*
X39878572Y-146500000D01*
X39092858Y-146500000D02*
X38950001Y-146428571D01*
X38878572Y-146285714D01*
X38878572Y-146071428D01*
X38950001Y-145928571D01*
X39092858Y-145857142D01*
X39878572Y-145857142D01*
X39878572Y-145142857D02*
X38878572Y-145142857D01*
X39021429Y-145142857D02*
X38950001Y-145071428D01*
X38878572Y-144928571D01*
X38878572Y-144714285D01*
X38950001Y-144571428D01*
X39092858Y-144500000D01*
X39878572Y-144500000D01*
X39092858Y-144500000D02*
X38950001Y-144428571D01*
X38878572Y-144285714D01*
X38878572Y-144071428D01*
X38950001Y-143928571D01*
X39092858Y-143857142D01*
X39878572Y-143857142D01*
X85000000Y-154000000D02*
X40413581Y-154000000D01*
X85000000Y-146000000D02*
X40413581Y-146000000D01*
X41000001Y-154000000D02*
X41000001Y-146000000D01*
X41000001Y-154000000D02*
X41000001Y-146000000D01*
X41000001Y-154000000D02*
X41586422Y-152873496D01*
X41000001Y-154000000D02*
X40413580Y-152873496D01*
X41000001Y-146000000D02*
X40413580Y-147126504D01*
X41000001Y-146000000D02*
X41586422Y-147126504D01*
D12*
X45000000Y-96000000D02*
X45000000Y-46000000D01*
X95000000Y-46000000D02*
X95000000Y-146000000D01*
X145000000Y-96000000D02*
X45000000Y-96000000D01*
D11*
X133928571Y-158878570D02*
X133071428Y-158878570D01*
X133500000Y-158878570D02*
X133500000Y-157378570D01*
X133357142Y-157592856D01*
X133214285Y-157735713D01*
X133071428Y-157807141D01*
X134857142Y-157378570D02*
X135000000Y-157378570D01*
X135142857Y-157449999D01*
X135214285Y-157521427D01*
X135285714Y-157664284D01*
X135357142Y-157949999D01*
X135357142Y-158307141D01*
X135285714Y-158592856D01*
X135214285Y-158735713D01*
X135142857Y-158807141D01*
X135000000Y-158878570D01*
X134857142Y-158878570D01*
X134714285Y-158807141D01*
X134642857Y-158735713D01*
X134571428Y-158592856D01*
X134500000Y-158307141D01*
X134500000Y-157949999D01*
X134571428Y-157664284D01*
X134642857Y-157521427D01*
X134714285Y-157449999D01*
X134857142Y-157378570D01*
X136000000Y-158735713D02*
X136071428Y-158807141D01*
X136000000Y-158878570D01*
X135928571Y-158807141D01*
X136000000Y-158735713D01*
X136000000Y-158878570D01*
X137000000Y-157378570D02*
X137142857Y-157378570D01*
X137285714Y-157449999D01*
X137357142Y-157521427D01*
X137428571Y-157664284D01*
X137500000Y-157949999D01*
X137500000Y-158307141D01*
X137428571Y-158592856D01*
X137357142Y-158735713D01*
X137285714Y-158807141D01*
X137142857Y-158878570D01*
X137000000Y-158878570D01*
X136857142Y-158807141D01*
X136785714Y-158735713D01*
X136714285Y-158592856D01*
X136642857Y-158307141D01*
X136642857Y-157949999D01*
X136714285Y-157664284D01*
X136785714Y-157521427D01*
X136857142Y-157449999D01*
X137000000Y-157378570D01*
X138428571Y-157378570D02*
X138571428Y-157378570D01*
X138714285Y-157449999D01*
X138785714Y-157521427D01*
X138857142Y-157664284D01*
X138928571Y-157949999D01*
X138928571Y-158307141D01*
X138857142Y-158592856D01*
X138785714Y-158735713D01*
X138714285Y-158807141D01*
X138571428Y-158878570D01*
X138428571Y-158878570D01*
X138285714Y-158807141D01*
X138214285Y-158735713D01*
X138142857Y-158592856D01*
X138071428Y-158307141D01*
X138071428Y-157949999D01*
X138142857Y-157664284D01*
X138214285Y-157521427D01*
X138285714Y-157449999D01*
X138428571Y-157378570D01*
X139857142Y-157378570D02*
X140000000Y-157378570D01*
X140142857Y-157449999D01*
X140214285Y-157521427D01*
X140285714Y-157664284D01*
X140357142Y-157949999D01*
X140357142Y-158307141D01*
X140285714Y-158592856D01*
X140214285Y-158735713D01*
X140142857Y-158807141D01*
X140000000Y-158878570D01*
X139857142Y-158878570D01*
X139714285Y-158807141D01*
X139642857Y-158735713D01*
X139571428Y-158592856D01*
X139500000Y-158307141D01*
X139500000Y-157949999D01*
X139571428Y-157664284D01*
X139642857Y-157521427D01*
X139714285Y-157449999D01*
X139857142Y-157378570D01*
X141285714Y-157378570D02*
X141428571Y-157378570D01*
X141571428Y-157449999D01*
X141642857Y-157521427D01*
X141714285Y-157664284D01*
X141785714Y-157949999D01*
X141785714Y-158307141D01*
X141714285Y-158592856D01*
X141642857Y-158735713D01*
X141571428Y-158807141D01*
X141428571Y-158878570D01*
X141285714Y-158878570D01*
X141142857Y-158807141D01*
X141071428Y-158735713D01*
X141000000Y-158592856D01*
X140928571Y-158307141D01*
X140928571Y-157949999D01*
X141000000Y-157664284D01*
X141071428Y-157521427D01*
X141142857Y-157449999D01*
X141285714Y-157378570D01*
X143571428Y-158878570D02*
X143571428Y-157878570D01*
X143571428Y-158021427D02*
X143642857Y-157949999D01*
X143785714Y-157878570D01*
X144000000Y-157878570D01*
X144142857Y-157949999D01*
X144214285Y-158092856D01*
X144214285Y-158878570D01*
X144214285Y-158092856D02*
X144285714Y-157949999D01*
X144428571Y-157878570D01*
X144642857Y-157878570D01*
X144785714Y-157949999D01*
X144857142Y-158092856D01*
X144857142Y-158878570D01*
X145571428Y-158878570D02*
X145571428Y-157878570D01*
X145571428Y-158021427D02*
X145642857Y-157949999D01*
X145785714Y-157878570D01*
X146000000Y-157878570D01*
X146142857Y-157949999D01*
X146214285Y-158092856D01*
X146214285Y-158878570D01*
X146214285Y-158092856D02*
X146285714Y-157949999D01*
X146428571Y-157878570D01*
X146642857Y-157878570D01*
X146785714Y-157949999D01*
X146857142Y-158092856D01*
X146857142Y-158878570D01*
X145000000Y-141000000D02*
X145000000Y-160586419D01*
X135000000Y-141000000D02*
X135000000Y-160586419D01*
X145000000Y-159999999D02*
X135000000Y-159999999D01*
X145000000Y-159999999D02*
X135000000Y-159999999D01*
X145000000Y-159999999D02*
X143873496Y-159413578D01*
X145000000Y-159999999D02*
X143873496Y-160586420D01*
X135000000Y-159999999D02*
X136126504Y-160586420D01*
X135000000Y-159999999D02*
X136126504Y-159413578D01*
X148878571Y-102785714D02*
X148878571Y-103642857D01*
X148878571Y-103214285D02*
X147378571Y-103214285D01*
X147592857Y-103357142D01*
X147735714Y-103500000D01*
X147807142Y-103642857D01*
X147378571Y-101857142D02*
X147378571Y-101714285D01*
X147450000Y-101571428D01*
X147521428Y-101500000D01*
X147664285Y-101428571D01*
X147950000Y-101357142D01*
X148307142Y-101357142D01*
X148592857Y-101428571D01*
X148735714Y-101500000D01*
X148807142Y-101571428D01*
X148878571Y-101714285D01*
X148878571Y-101857142D01*
X148807142Y-102000000D01*
X148735714Y-102071428D01*
X148592857Y-102142857D01*
X148307142Y-102214285D01*
X147950000Y-102214285D01*
X147664285Y-102142857D01*
X147521428Y-102071428D01*
X147450000Y-102000000D01*
X147378571Y-101857142D01*
X147378571Y-100428571D02*
X147378571Y-100285714D01*
X147450000Y-100142857D01*
X147521428Y-100071428D01*
X147664285Y-100000000D01*
X147950000Y-99928571D01*
X148307142Y-99928571D01*
X148592857Y-100000000D01*
X148735714Y-100071428D01*
X148807142Y-100142857D01*
X148878571Y-100285714D01*
X148878571Y-100428571D01*
X148807142Y-100571428D01*
X148735714Y-100642857D01*
X148592857Y-100714285D01*
X148307142Y-100785714D01*
X147950000Y-100785714D01*
X147664285Y-100714285D01*
X147521428Y-100642857D01*
X147450000Y-100571428D01*
X147378571Y-100428571D01*
X148735714Y-99285714D02*
X148807142Y-99214285D01*
X148878571Y-99285714D01*
X148807142Y-99357142D01*
X148735714Y-99285714D01*
X148878571Y-99285714D01*
X147378571Y-98285714D02*
X147378571Y-98142857D01*
X147450000Y-98000000D01*
X147521428Y-97928571D01*
X147664285Y-97857142D01*
X147950000Y-97785714D01*
X148307142Y-97785714D01*
X148592857Y-97857142D01*
X148735714Y-97928571D01*
X148807142Y-98000000D01*
X148878571Y-98142857D01*
X148878571Y-98285714D01*
X148807142Y-98428571D01*
X148735714Y-98500000D01*
X148592857Y-98571428D01*
X148307142Y-98642857D01*
X147950000Y-98642857D01*
X147664285Y-98571428D01*
X147521428Y-98500000D01*
X147450000Y-98428571D01*
X147378571Y-98285714D01*
X147378571Y-96857142D02*
X147378571Y-96714285D01*
X147450000Y-96571428D01*
X147521428Y-96500000D01*
X147664285Y-96428571D01*
X147950000Y-96357142D01*
X148307142Y-96357142D01*
X148592857Y-96428571D01*
X148735714Y-96500000D01*
X148807142Y-96571428D01*
X148878571Y-96714285D01*
X148878571Y-96857142D01*
X148807142Y-97000000D01*
X148735714Y-97071428D01*
X148592857Y-97142857D01*
X148307142Y-97214285D01*
X147950000Y-97214285D01*
X147664285Y-97142857D01*
X147521428Y-97071428D01*
X147450000Y-97000000D01*
X147378571Y-96857142D01*
X147378571Y-95428571D02*
X147378571Y-95285714D01*
X147450000Y-95142857D01*
X147521428Y-95071428D01*
X147664285Y-95000000D01*
X147950000Y-94928571D01*
X148307142Y-94928571D01*
X148592857Y-95000000D01*
X148735714Y-95071428D01*
X148807142Y-95142857D01*
X148878571Y-95285714D01*
X148878571Y-95428571D01*
X148807142Y-95571428D01*
X148735714Y-95642857D01*
X148592857Y-95714285D01*
X148307142Y-95785714D01*
X147950000Y-95785714D01*
X147664285Y-95714285D01*
X147521428Y-95642857D01*
X147450000Y-95571428D01*
X147378571Y-95428571D01*
X147378571Y-94000000D02*
X147378571Y-93857142D01*
X147450000Y-93714285D01*
X147521428Y-93642857D01*
X147664285Y-93571428D01*
X147950000Y-93500000D01*
X148307142Y-93500000D01*
X148592857Y-93571428D01*
X148735714Y-93642857D01*
X148807142Y-93714285D01*
X148878571Y-93857142D01*
X148878571Y-94000000D01*
X148807142Y-94142857D01*
X148735714Y-94214285D01*
X148592857Y-94285714D01*
X148307142Y-94357142D01*
X147950000Y-94357142D01*
X147664285Y-94285714D01*
X147521428Y-94214285D01*
X147450000Y-94142857D01*
X147378571Y-94000000D01*
X148878571Y-91714285D02*
X147878571Y-91714285D01*
X148021428Y-91714285D02*
X147950000Y-91642857D01*
X147878571Y-91500000D01*
X147878571Y-91285714D01*
X147950000Y-91142857D01*
X148092857Y-91071428D01*
X148878571Y-91071428D01*
X148092857Y-91071428D02*
X147950000Y-91000000D01*
X147878571Y-90857142D01*
X147878571Y-90642857D01*
X147950000Y-90500000D01*
X148092857Y-90428571D01*
X148878571Y-90428571D01*
X148878571Y-89714285D02*
X147878571Y-89714285D01*
X148021428Y-89714285D02*
X147950000Y-89642857D01*
X147878571Y-89500000D01*
X147878571Y-89285714D01*
X147950000Y-89142857D01*
X148092857Y-89071428D01*
X148878571Y-89071428D01*
X148092857Y-89071428D02*
X147950000Y-89000000D01*
X147878571Y-88857142D01*
X147878571Y-88642857D01*
X147950000Y-88500000D01*
X148092857Y-88428571D01*
X148878571Y-88428571D01*
X145000000Y-146000000D02*
X150586420Y-146000000D01*
X145000000Y-46000000D02*
X150586420Y-46000000D01*
X150000000Y-146000000D02*
X150000000Y-46000000D01*
X150000000Y-146000000D02*
X150000000Y-46000000D01*
X150000000Y-146000000D02*
X150586421Y-144873496D01*
X150000000Y-146000000D02*
X149413579Y-144873496D01*
X150000000Y-46000000D02*
X149413579Y-47126504D01*
X150000000Y-46000000D02*
X150586421Y-47126504D01*
X88214285Y-39878571D02*
X87357142Y-39878571D01*
X87785714Y-39878571D02*
X87785714Y-38378571D01*
X87642857Y-38592857D01*
X87500000Y-38735714D01*
X87357142Y-38807142D01*
X89142857Y-38378571D02*
X89285714Y-38378571D01*
X89428571Y-38450000D01*
X89500000Y-38521428D01*
X89571428Y-38664285D01*
X89642857Y-38950000D01*
X89642857Y-39307142D01*
X89571428Y-39592857D01*
X89500000Y-39735714D01*
X89428571Y-39807142D01*
X89285714Y-39878571D01*
X89142857Y-39878571D01*
X89000000Y-39807142D01*
X88928571Y-39735714D01*
X88857142Y-39592857D01*
X88785714Y-39307142D01*
X88785714Y-38950000D01*
X88857142Y-38664285D01*
X88928571Y-38521428D01*
X89000000Y-38450000D01*
X89142857Y-38378571D01*
X90571428Y-38378571D02*
X90714285Y-38378571D01*
X90857142Y-38450000D01*
X90928571Y-38521428D01*
X91000000Y-38664285D01*
X91071428Y-38950000D01*
X91071428Y-39307142D01*
X91000000Y-39592857D01*
X90928571Y-39735714D01*
X90857142Y-39807142D01*
X90714285Y-39878571D01*
X90571428Y-39878571D01*
X90428571Y-39807142D01*
X90357142Y-39735714D01*
X90285714Y-39592857D01*
X90214285Y-39307142D01*
X90214285Y-38950000D01*
X90285714Y-38664285D01*
X90357142Y-38521428D01*
X90428571Y-38450000D01*
X90571428Y-38378571D01*
X91714285Y-39735714D02*
X91785714Y-39807142D01*
X91714285Y-39878571D01*
X91642857Y-39807142D01*
X91714285Y-39735714D01*
X91714285Y-39878571D01*
X92714285Y-38378571D02*
X92857142Y-38378571D01*
X93000000Y-38450000D01*
X93071428Y-38521428D01*
X93142857Y-38664285D01*
X93214285Y-38950000D01*
X93214285Y-39307142D01*
X93142857Y-39592857D01*
X93071428Y-39735714D01*
X93000000Y-39807142D01*
X92857142Y-39878571D01*
X92714285Y-39878571D01*
X92571428Y-39807142D01*
X92500000Y-39735714D01*
X92428571Y-39592857D01*
X92357142Y-39307142D01*
X92357142Y-38950000D01*
X92428571Y-38664285D01*
X92500000Y-38521428D01*
X92571428Y-38450000D01*
X92714285Y-38378571D01*
X94142857Y-38378571D02*
X94285714Y-38378571D01*
X94428571Y-38450000D01*
X94500000Y-38521428D01*
X94571428Y-38664285D01*
X94642857Y-38950000D01*
X94642857Y-39307142D01*
X94571428Y-39592857D01*
X94500000Y-39735714D01*
X94428571Y-39807142D01*
X94285714Y-39878571D01*
X94142857Y-39878571D01*
X94000000Y-39807142D01*
X93928571Y-39735714D01*
X93857142Y-39592857D01*
X93785714Y-39307142D01*
X93785714Y-38950000D01*
X93857142Y-38664285D01*
X93928571Y-38521428D01*
X94000000Y-38450000D01*
X94142857Y-38378571D01*
X95571428Y-38378571D02*
X95714285Y-38378571D01*
X95857142Y-38450000D01*
X95928571Y-38521428D01*
X96000000Y-38664285D01*
X96071428Y-38950000D01*
X96071428Y-39307142D01*
X96000000Y-39592857D01*
X95928571Y-39735714D01*
X95857142Y-39807142D01*
X95714285Y-39878571D01*
X95571428Y-39878571D01*
X95428571Y-39807142D01*
X95357142Y-39735714D01*
X95285714Y-39592857D01*
X95214285Y-39307142D01*
X95214285Y-38950000D01*
X95285714Y-38664285D01*
X95357142Y-38521428D01*
X95428571Y-38450000D01*
X95571428Y-38378571D01*
X97000000Y-38378571D02*
X97142857Y-38378571D01*
X97285714Y-38450000D01*
X97357142Y-38521428D01*
X97428571Y-38664285D01*
X97500000Y-38950000D01*
X97500000Y-39307142D01*
X97428571Y-39592857D01*
X97357142Y-39735714D01*
X97285714Y-39807142D01*
X97142857Y-39878571D01*
X97000000Y-39878571D01*
X96857142Y-39807142D01*
X96785714Y-39735714D01*
X96714285Y-39592857D01*
X96642857Y-39307142D01*
X96642857Y-38950000D01*
X96714285Y-38664285D01*
X96785714Y-38521428D01*
X96857142Y-38450000D01*
X97000000Y-38378571D01*
X99285714Y-39878571D02*
X99285714Y-38878571D01*
X99285714Y-39021428D02*
X99357142Y-38950000D01*
X99500000Y-38878571D01*
X99714285Y-38878571D01*
X99857142Y-38950000D01*
X99928571Y-39092857D01*
X99928571Y-39878571D01*
X99928571Y-39092857D02*
X100000000Y-38950000D01*
X100142857Y-38878571D01*
X100357142Y-38878571D01*
X100500000Y-38950000D01*
X100571428Y-39092857D01*
X100571428Y-39878571D01*
X101285714Y-39878571D02*
X101285714Y-38878571D01*
X101285714Y-39021428D02*
X101357142Y-38950000D01*
X101500000Y-38878571D01*
X101714285Y-38878571D01*
X101857142Y-38950000D01*
X101928571Y-39092857D01*
X101928571Y-39878571D01*
X101928571Y-39092857D02*
X102000000Y-38950000D01*
X102142857Y-38878571D01*
X102357142Y-38878571D01*
X102500000Y-38950000D01*
X102571428Y-39092857D01*
X102571428Y-39878571D01*
X45000000Y-46000000D02*
X45000000Y-40413580D01*
X145000000Y-46000000D02*
X145000000Y-40413580D01*
X45000000Y-41000000D02*
X145000000Y-41000000D01*
X45000000Y-41000000D02*
X145000000Y-41000000D01*
X45000000Y-41000000D02*
X46126504Y-41586421D01*
X45000000Y-41000000D02*
X46126504Y-40413579D01*
X145000000Y-41000000D02*
X143873496Y-40413579D01*
X145000000Y-41000000D02*
X143873496Y-41586421D01*
X150378570Y-148928571D02*
X150378570Y-149642857D01*
X151092856Y-149714285D01*
X151021427Y-149642857D01*
X150949999Y-149500000D01*
X150949999Y-149142857D01*
X151021427Y-149000000D01*
X151092856Y-148928571D01*
X151235713Y-148857142D01*
X151592856Y-148857142D01*
X151735713Y-148928571D01*
X151807141Y-149000000D01*
X151878570Y-149142857D01*
X151878570Y-149500000D01*
X151807141Y-149642857D01*
X151735713Y-149714285D01*
X151735713Y-148214285D02*
X151807141Y-148142857D01*
X151878570Y-148214285D01*
X151807141Y-148285714D01*
X151735713Y-148214285D01*
X151878570Y-148214285D01*
X150378570Y-147214285D02*
X150378570Y-147071428D01*
X150449999Y-146928571D01*
X150521427Y-146857142D01*
X150664284Y-146785714D01*
X150949999Y-146714285D01*
X151307141Y-146714285D01*
X151592856Y-146785714D01*
X151735713Y-146857142D01*
X151807141Y-146928571D01*
X151878570Y-147071428D01*
X151878570Y-147214285D01*
X151807141Y-147357142D01*
X151735713Y-147428571D01*
X151592856Y-147500000D01*
X151307141Y-147571428D01*
X150949999Y-147571428D01*
X150664284Y-147500000D01*
X150521427Y-147428571D01*
X150449999Y-147357142D01*
X150378570Y-147214285D01*
X150378570Y-145785714D02*
X150378570Y-145642857D01*
X150449999Y-145500000D01*
X150521427Y-145428571D01*
X150664284Y-145357142D01*
X150949999Y-145285714D01*
X151307141Y-145285714D01*
X151592856Y-145357142D01*
X151735713Y-145428571D01*
X151807141Y-145500000D01*
X151878570Y-145642857D01*
X151878570Y-145785714D01*
X151807141Y-145928571D01*
X151735713Y-146000000D01*
X151592856Y-146071428D01*
X151307141Y-146142857D01*
X150949999Y-146142857D01*
X150664284Y-146071428D01*
X150521427Y-146000000D01*
X150449999Y-145928571D01*
X150378570Y-145785714D01*
X150378570Y-144357142D02*
X150378570Y-144214285D01*
X150449999Y-144071428D01*
X150521427Y-144000000D01*
X150664284Y-143928571D01*
X150949999Y-143857142D01*
X151307141Y-143857142D01*
X151592856Y-143928571D01*
X151735713Y-144000000D01*
X151807141Y-144071428D01*
X151878570Y-144214285D01*
X151878570Y-144357142D01*
X151807141Y-144500000D01*
X151735713Y-144571428D01*
X151592856Y-144642857D01*
X151307141Y-144714285D01*
X150949999Y-144714285D01*
X150664284Y-144642857D01*
X150521427Y-144571428D01*
X150449999Y-144500000D01*
X150378570Y-144357142D01*
X150378570Y-142928571D02*
X150378570Y-142785714D01*
X150449999Y-142642857D01*
X150521427Y-142571428D01*
X150664284Y-142500000D01*
X150949999Y-142428571D01*
X151307141Y-142428571D01*
X151592856Y-142500000D01*
X151735713Y-142571428D01*
X151807141Y-142642857D01*
X151878570Y-142785714D01*
X151878570Y-142928571D01*
X151807141Y-143071428D01*
X151735713Y-143142857D01*
X151592856Y-143214285D01*
X151307141Y-143285714D01*
X150949999Y-143285714D01*
X150664284Y-143214285D01*
X150521427Y-143142857D01*
X150449999Y-143071428D01*
X150378570Y-142928571D01*
X151878570Y-140642857D02*
X150878570Y-140642857D01*
X151021427Y-140642857D02*
X150949999Y-140571428D01*
X150878570Y-140428571D01*
X150878570Y-140214285D01*
X150949999Y-140071428D01*
X151092856Y-140000000D01*
X151878570Y-140000000D01*
X151092856Y-140000000D02*
X150949999Y-139928571D01*
X150878570Y-139785714D01*
X150878570Y-139571428D01*
X150949999Y-139428571D01*
X151092856Y-139357142D01*
X151878570Y-139357142D01*
X151878570Y-138642857D02*
X150878570Y-138642857D01*
X151021427Y-138642857D02*
X150949999Y-138571428D01*
X150878570Y-138428571D01*
X150878570Y-138214285D01*
X150949999Y-138071428D01*
X151092856Y-138000000D01*
X151878570Y-138000000D01*
X151092856Y-138000000D02*
X150949999Y-137928571D01*
X150878570Y-137785714D01*
X150878570Y-137571428D01*
X150949999Y-137428571D01*
X151092856Y-137357142D01*
X151878570Y-137357142D01*
X135000000Y-146000000D02*
X153586419Y-146000000D01*
X135000000Y-141000000D02*
X153586419Y-141000000D01*
X152999999Y-146000000D02*
X152999999Y-141000000D01*
X152999999Y-146000000D02*
X152999999Y-141000000D01*
X152999999Y-146000000D02*
X153586420Y-144873496D01*
X152999999Y-146000000D02*
X152413578Y-144873496D01*
X152999999Y-141000000D02*
X152413578Y-142126504D01*
X152999999Y-141000000D02*
X153586420Y-142126504D01*
M02*
