%TF.GenerationSoftware,KiCad,Pcbnew,(6.0.4-0)*%
%TF.CreationDate,2022-09-18T19:18:21-04:00*%
%TF.ProjectId,Z80-6502IO,5a38302d-3635-4303-9249-4f2e6b696361,rev?*%
%TF.SameCoordinates,Original*%
%TF.FileFunction,Copper,L2,Bot*%
%TF.FilePolarity,Positive*%
%FSLAX46Y46*%
G04 Gerber Fmt 4.6, Leading zero omitted, Abs format (unit mm)*
G04 Created by KiCad (PCBNEW (6.0.4-0)) date 2022-09-18 19:18:21*
%MOMM*%
%LPD*%
G01*
G04 APERTURE LIST*
%TA.AperFunction,ComponentPad*%
%ADD10R,1.700000X1.700000*%
%TD*%
%TA.AperFunction,ComponentPad*%
%ADD11C,1.600000*%
%TD*%
%TA.AperFunction,ComponentPad*%
%ADD12O,1.700000X1.700000*%
%TD*%
%TA.AperFunction,ComponentPad*%
%ADD13O,1.600000X1.600000*%
%TD*%
%TA.AperFunction,ComponentPad*%
%ADD14R,1.600000X1.600000*%
%TD*%
%TA.AperFunction,ComponentPad*%
%ADD15C,3.616000*%
%TD*%
%TA.AperFunction,ComponentPad*%
%ADD16C,2.550000*%
%TD*%
%TA.AperFunction,ComponentPad*%
%ADD17C,4.399999*%
%TD*%
%TA.AperFunction,ComponentPad*%
%ADD18C,4.400000*%
%TD*%
%TA.AperFunction,ComponentPad*%
%ADD19C,1.800000*%
%TD*%
%TA.AperFunction,ComponentPad*%
%ADD20R,1.800000X1.800000*%
%TD*%
%TA.AperFunction,ViaPad*%
%ADD21C,0.600000*%
%TD*%
%TA.AperFunction,Conductor*%
%ADD22C,1.000000*%
%TD*%
%TA.AperFunction,Conductor*%
%ADD23C,0.250000*%
%TD*%
G04 APERTURE END LIST*
D10*
%TO.P,P1,1*%
%TO.N,SLAVE_CLK*%
X64008000Y-90424000D03*
%TD*%
D11*
%TO.P,C21,2*%
%TO.N,GND*%
X125650000Y-61722000D03*
%TO.P,C21,1*%
%TO.N,VCC*%
X120650000Y-61722000D03*
%TD*%
%TO.P,C20,2*%
%TO.N,GND*%
X99234000Y-61722000D03*
%TO.P,C20,1*%
%TO.N,VCC*%
X94234000Y-61722000D03*
%TD*%
%TO.P,C19,2*%
%TO.N,GND*%
X65786000Y-98044000D03*
%TO.P,C19,1*%
%TO.N,VCC*%
X60786000Y-98044000D03*
%TD*%
D12*
%TO.P,P5,28*%
%TO.N,N/C*%
X122936000Y-52324000D03*
%TO.P,P5,27*%
X122936000Y-54864000D03*
%TO.P,P5,26*%
%TO.N,GND*%
X120396000Y-52324000D03*
%TO.P,P5,25*%
%TO.N,VCC*%
X120396000Y-54864000D03*
%TO.P,P5,24*%
%TO.N,Net-(P5-Pad24)*%
X117856000Y-52324000D03*
%TO.P,P5,23*%
%TO.N,Net-(P5-Pad23)*%
X117856000Y-54864000D03*
%TO.P,P5,22*%
%TO.N,Net-(P5-Pad22)*%
X115316000Y-52324000D03*
%TO.P,P5,21*%
%TO.N,Net-(P5-Pad21)*%
X115316000Y-54864000D03*
%TO.P,P5,20*%
%TO.N,CB2*%
X112776000Y-52324000D03*
%TO.P,P5,19*%
%TO.N,CA2*%
X112776000Y-54864000D03*
%TO.P,P5,18*%
%TO.N,CB1*%
X110236000Y-52324000D03*
%TO.P,P5,17*%
%TO.N,CA1*%
X110236000Y-54864000D03*
%TO.P,P5,16*%
%TO.N,PB7*%
X107696000Y-52324000D03*
%TO.P,P5,15*%
%TO.N,PA7*%
X107696000Y-54864000D03*
%TO.P,P5,14*%
%TO.N,PB6*%
X105156000Y-52324000D03*
%TO.P,P5,13*%
%TO.N,PA6*%
X105156000Y-54864000D03*
%TO.P,P5,12*%
%TO.N,PB5*%
X102616000Y-52324000D03*
%TO.P,P5,11*%
%TO.N,PA5*%
X102616000Y-54864000D03*
%TO.P,P5,10*%
%TO.N,PB4*%
X100076000Y-52324000D03*
%TO.P,P5,9*%
%TO.N,PA4*%
X100076000Y-54864000D03*
%TO.P,P5,8*%
%TO.N,PB3*%
X97536000Y-52324000D03*
%TO.P,P5,7*%
%TO.N,PA3*%
X97536000Y-54864000D03*
%TO.P,P5,6*%
%TO.N,PB2*%
X94996000Y-52324000D03*
%TO.P,P5,5*%
%TO.N,PA2*%
X94996000Y-54864000D03*
%TO.P,P5,4*%
%TO.N,PB1*%
X92456000Y-52324000D03*
%TO.P,P5,3*%
%TO.N,PA1*%
X92456000Y-54864000D03*
%TO.P,P5,2*%
%TO.N,PB0*%
X89916000Y-52324000D03*
D10*
%TO.P,P5,1*%
%TO.N,PA0*%
X89916000Y-54864000D03*
%TD*%
D11*
%TO.P,C1,2*%
%TO.N,GND*%
X55546000Y-109728000D03*
%TO.P,C1,1*%
%TO.N,VCC*%
X50546000Y-109728000D03*
%TD*%
D13*
%TO.P,U7,20*%
%TO.N,VCC*%
X126850000Y-108460000D03*
%TO.P,U7,10*%
%TO.N,GND*%
X119230000Y-131320000D03*
%TO.P,U7,19*%
%TO.N,BOARD_CS#*%
X126850000Y-111000000D03*
%TO.P,U7,9*%
%TO.N,Net-(RR1-Pad5)*%
X119230000Y-128780000D03*
%TO.P,U7,18*%
%TO.N,Net-(RR1-Pad9)*%
X126850000Y-113540000D03*
%TO.P,U7,8*%
%TO.N,bM1#*%
X119230000Y-126240000D03*
%TO.P,U7,17*%
%TO.N,bA7*%
X126850000Y-116080000D03*
%TO.P,U7,7*%
%TO.N,Net-(RR1-Pad4)*%
X119230000Y-123700000D03*
%TO.P,U7,16*%
%TO.N,Net-(RR1-Pad8)*%
X126850000Y-118620000D03*
%TO.P,U7,6*%
%TO.N,bM1#*%
X119230000Y-121160000D03*
%TO.P,U7,15*%
%TO.N,bA6*%
X126850000Y-121160000D03*
%TO.P,U7,5*%
%TO.N,Net-(RR1-Pad3)*%
X119230000Y-118620000D03*
%TO.P,U7,14*%
%TO.N,Net-(RR1-Pad7)*%
X126850000Y-123700000D03*
%TO.P,U7,4*%
%TO.N,bM1#*%
X119230000Y-116080000D03*
%TO.P,U7,13*%
X126850000Y-126240000D03*
%TO.P,U7,3*%
%TO.N,Net-(RR1-Pad2)*%
X119230000Y-113540000D03*
%TO.P,U7,12*%
%TO.N,Net-(RR1-Pad6)*%
X126850000Y-128780000D03*
%TO.P,U7,2*%
%TO.N,bM1#*%
X119230000Y-111000000D03*
%TO.P,U7,11*%
X126850000Y-131320000D03*
D14*
%TO.P,U7,1*%
%TO.N,/688SEL#*%
X119230000Y-108460000D03*
%TD*%
D13*
%TO.P,U12,8*%
%TO.N,+12V*%
X141478000Y-87122000D03*
%TO.P,U12,4*%
%TO.N,GND*%
X133858000Y-94742000D03*
%TO.P,U12,7*%
%TO.N,N/C*%
X141478000Y-89662000D03*
%TO.P,U12,3*%
%TO.N,Net-(R3-Pad2)*%
X133858000Y-92202000D03*
%TO.P,U12,6*%
%TO.N,N/C*%
X141478000Y-92202000D03*
%TO.P,U12,2*%
%TO.N,Net-(C18-Pad1)*%
X133858000Y-89662000D03*
%TO.P,U12,5*%
%TO.N,N/C*%
X141478000Y-94742000D03*
D14*
%TO.P,U12,1*%
%TO.N,Net-(C18-Pad1)*%
X133858000Y-87122000D03*
%TD*%
D13*
%TO.P,U11,8*%
%TO.N,GND*%
X56896000Y-95250000D03*
%TO.P,U11,4*%
%TO.N,Net-(C13-Pad1)*%
X49276000Y-102870000D03*
%TO.P,U11,7*%
%TO.N,GND*%
X56896000Y-97790000D03*
%TO.P,U11,3*%
%TO.N,Net-(C13-Pad2)*%
X49276000Y-100330000D03*
%TO.P,U11,6*%
%TO.N,+12V*%
X56896000Y-100330000D03*
%TO.P,U11,2*%
%TO.N,Net-(C12-Pad1)*%
X49276000Y-97790000D03*
%TO.P,U11,5*%
%TO.N,VCC*%
X56896000Y-102870000D03*
D14*
%TO.P,U11,1*%
%TO.N,Net-(C12-Pad2)*%
X49276000Y-95250000D03*
%TD*%
D13*
%TO.P,U10,28*%
%TO.N,+12V*%
X130302000Y-65024000D03*
%TO.P,U10,14*%
%TO.N,GND*%
X115062000Y-98044000D03*
%TO.P,U10,27*%
%TO.N,Net-(R3-Pad2)*%
X130302000Y-67564000D03*
%TO.P,U10,13*%
%TO.N,bA4*%
X115062000Y-95504000D03*
%TO.P,U10,26*%
%TO.N,Net-(U10-Pad26)*%
X130302000Y-70104000D03*
%TO.P,U10,12*%
%TO.N,bA3*%
X115062000Y-92964000D03*
%TO.P,U10,25*%
%TO.N,VCC*%
X130302000Y-72644000D03*
%TO.P,U10,11*%
%TO.N,bA2*%
X115062000Y-90424000D03*
%TO.P,U10,24*%
%TO.N,Net-(U10-Pad24)*%
X130302000Y-75184000D03*
%TO.P,U10,10*%
%TO.N,bA1*%
X115062000Y-87884000D03*
%TO.P,U10,23*%
%TO.N,Net-(U10-Pad23)*%
X130302000Y-77724000D03*
%TO.P,U10,9*%
%TO.N,bA0*%
X115062000Y-85344000D03*
%TO.P,U10,22*%
%TO.N,bD7*%
X130302000Y-80264000D03*
%TO.P,U10,8*%
%TO.N,CS_SID#*%
X115062000Y-82804000D03*
%TO.P,U10,21*%
%TO.N,bD6*%
X130302000Y-82804000D03*
%TO.P,U10,7*%
%TO.N,bRW#*%
X115062000Y-80264000D03*
%TO.P,U10,20*%
%TO.N,bD5*%
X130302000Y-85344000D03*
%TO.P,U10,6*%
%TO.N,SLAVE_CLK*%
X115062000Y-77724000D03*
%TO.P,U10,19*%
%TO.N,bD4*%
X130302000Y-87884000D03*
%TO.P,U10,5*%
%TO.N,bRESET#*%
X115062000Y-75184000D03*
%TO.P,U10,18*%
%TO.N,bD3*%
X130302000Y-90424000D03*
%TO.P,U10,4*%
%TO.N,Net-(C16-Pad2)*%
X115062000Y-72644000D03*
%TO.P,U10,17*%
%TO.N,bD2*%
X130302000Y-92964000D03*
%TO.P,U10,3*%
%TO.N,Net-(C16-Pad1)*%
X115062000Y-70104000D03*
%TO.P,U10,16*%
%TO.N,bD1*%
X130302000Y-95504000D03*
%TO.P,U10,2*%
%TO.N,Net-(C15-Pad2)*%
X115062000Y-67564000D03*
%TO.P,U10,15*%
%TO.N,bD0*%
X130302000Y-98044000D03*
D14*
%TO.P,U10,1*%
%TO.N,Net-(C15-Pad1)*%
X115062000Y-65024000D03*
%TD*%
D13*
%TO.P,U9,40*%
%TO.N,CA1*%
X84328000Y-49784000D03*
%TO.P,U9,20*%
%TO.N,VCC*%
X69088000Y-98044000D03*
%TO.P,U9,39*%
%TO.N,CA2*%
X84328000Y-52324000D03*
%TO.P,U9,19*%
%TO.N,CB2*%
X69088000Y-95504000D03*
%TO.P,U9,38*%
%TO.N,bA0*%
X84328000Y-54864000D03*
%TO.P,U9,18*%
%TO.N,CB1*%
X69088000Y-92964000D03*
%TO.P,U9,37*%
%TO.N,bA1*%
X84328000Y-57404000D03*
%TO.P,U9,17*%
%TO.N,PB7*%
X69088000Y-90424000D03*
%TO.P,U9,36*%
%TO.N,bA2*%
X84328000Y-59944000D03*
%TO.P,U9,16*%
%TO.N,PB6*%
X69088000Y-87884000D03*
%TO.P,U9,35*%
%TO.N,bA3*%
X84328000Y-62484000D03*
%TO.P,U9,15*%
%TO.N,PB5*%
X69088000Y-85344000D03*
%TO.P,U9,34*%
%TO.N,bRESET#*%
X84328000Y-65024000D03*
%TO.P,U9,14*%
%TO.N,PB4*%
X69088000Y-82804000D03*
%TO.P,U9,33*%
%TO.N,bD0*%
X84328000Y-67564000D03*
%TO.P,U9,13*%
%TO.N,PB3*%
X69088000Y-80264000D03*
%TO.P,U9,32*%
%TO.N,bD1*%
X84328000Y-70104000D03*
%TO.P,U9,12*%
%TO.N,PB2*%
X69088000Y-77724000D03*
%TO.P,U9,31*%
%TO.N,bD2*%
X84328000Y-72644000D03*
%TO.P,U9,11*%
%TO.N,PB1*%
X69088000Y-75184000D03*
%TO.P,U9,30*%
%TO.N,bD3*%
X84328000Y-75184000D03*
%TO.P,U9,10*%
%TO.N,PB0*%
X69088000Y-72644000D03*
%TO.P,U9,29*%
%TO.N,bD4*%
X84328000Y-77724000D03*
%TO.P,U9,9*%
%TO.N,PA7*%
X69088000Y-70104000D03*
%TO.P,U9,28*%
%TO.N,bD5*%
X84328000Y-80264000D03*
%TO.P,U9,8*%
%TO.N,PA6*%
X69088000Y-67564000D03*
%TO.P,U9,27*%
%TO.N,bD6*%
X84328000Y-82804000D03*
%TO.P,U9,7*%
%TO.N,PA5*%
X69088000Y-65024000D03*
%TO.P,U9,26*%
%TO.N,bD7*%
X84328000Y-85344000D03*
%TO.P,U9,6*%
%TO.N,PA4*%
X69088000Y-62484000D03*
%TO.P,U9,25*%
%TO.N,SLAVE_CLK*%
X84328000Y-87884000D03*
%TO.P,U9,5*%
%TO.N,PA3*%
X69088000Y-59944000D03*
%TO.P,U9,24*%
%TO.N,VCC*%
X84328000Y-90424000D03*
%TO.P,U9,4*%
%TO.N,PA2*%
X69088000Y-57404000D03*
%TO.P,U9,23*%
%TO.N,CS_VIA1#*%
X84328000Y-92964000D03*
%TO.P,U9,3*%
%TO.N,PA1*%
X69088000Y-54864000D03*
%TO.P,U9,22*%
%TO.N,bRW#*%
X84328000Y-95504000D03*
%TO.P,U9,2*%
%TO.N,PA0*%
X69088000Y-52324000D03*
%TO.P,U9,21*%
%TO.N,IRQV#*%
X84328000Y-98044000D03*
D14*
%TO.P,U9,1*%
%TO.N,GND*%
X69088000Y-49784000D03*
%TD*%
D13*
%TO.P,U8,28*%
%TO.N,bRW#*%
X104902000Y-65024000D03*
%TO.P,U8,14*%
%TO.N,bA1*%
X89662000Y-98044000D03*
%TO.P,U8,27*%
%TO.N,SLAVE_CLK*%
X104902000Y-67564000D03*
%TO.P,U8,13*%
%TO.N,bA0*%
X89662000Y-95504000D03*
%TO.P,U8,26*%
%TO.N,IRQA#*%
X104902000Y-70104000D03*
%TO.P,U8,12*%
%TO.N,RxD*%
X89662000Y-92964000D03*
%TO.P,U8,25*%
%TO.N,bD7*%
X104902000Y-72644000D03*
%TO.P,U8,11*%
%TO.N,Net-(U8-Pad11)*%
X89662000Y-90424000D03*
%TO.P,U8,24*%
%TO.N,bD6*%
X104902000Y-75184000D03*
%TO.P,U8,10*%
%TO.N,TxD*%
X89662000Y-87884000D03*
%TO.P,U8,23*%
%TO.N,bD5*%
X104902000Y-77724000D03*
%TO.P,U8,9*%
%TO.N,CTS*%
X89662000Y-85344000D03*
%TO.P,U8,22*%
%TO.N,bD4*%
X104902000Y-80264000D03*
%TO.P,U8,8*%
%TO.N,RTS*%
X89662000Y-82804000D03*
%TO.P,U8,21*%
%TO.N,bD3*%
X104902000Y-82804000D03*
%TO.P,U8,7*%
%TO.N,Net-(U8-Pad7)*%
X89662000Y-80264000D03*
%TO.P,U8,20*%
%TO.N,bD2*%
X104902000Y-85344000D03*
%TO.P,U8,6*%
%TO.N,Net-(U8-Pad6)*%
X89662000Y-77724000D03*
%TO.P,U8,19*%
%TO.N,bD1*%
X104902000Y-87884000D03*
%TO.P,U8,5*%
%TO.N,Net-(U8-Pad5)*%
X89662000Y-75184000D03*
%TO.P,U8,18*%
%TO.N,bD0*%
X104902000Y-90424000D03*
%TO.P,U8,4*%
%TO.N,bRESET#*%
X89662000Y-72644000D03*
%TO.P,U8,17*%
%TO.N,DSR*%
X104902000Y-92964000D03*
%TO.P,U8,3*%
%TO.N,CS_ACIA1#*%
X89662000Y-70104000D03*
%TO.P,U8,16*%
%TO.N,Net-(U8-Pad16)*%
X104902000Y-95504000D03*
%TO.P,U8,2*%
%TO.N,VCC*%
X89662000Y-67564000D03*
%TO.P,U8,15*%
X104902000Y-98044000D03*
D14*
%TO.P,U8,1*%
%TO.N,GND*%
X89662000Y-65024000D03*
%TD*%
D13*
%TO.P,U6,16*%
%TO.N,VCC*%
X56896000Y-113538000D03*
%TO.P,U6,8*%
%TO.N,GND*%
X49276000Y-131318000D03*
%TO.P,U6,15*%
%TO.N,N/C*%
X56896000Y-116078000D03*
%TO.P,U6,7*%
%TO.N,CS_SID#*%
X49276000Y-128778000D03*
%TO.P,U6,14*%
%TO.N,N/C*%
X56896000Y-118618000D03*
%TO.P,U6,6*%
%TO.N,CS_ACIA1#*%
X49276000Y-126238000D03*
%TO.P,U6,13*%
%TO.N,N/C*%
X56896000Y-121158000D03*
%TO.P,U6,5*%
%TO.N,Net-(U6-Pad5)*%
X49276000Y-123698000D03*
%TO.P,U6,12*%
%TO.N,N/C*%
X56896000Y-123698000D03*
%TO.P,U6,4*%
%TO.N,CS_VIA1#*%
X49276000Y-121158000D03*
%TO.P,U6,11*%
%TO.N,N/C*%
X56896000Y-126238000D03*
%TO.P,U6,3*%
%TO.N,bA5*%
X49276000Y-118618000D03*
%TO.P,U6,10*%
%TO.N,N/C*%
X56896000Y-128778000D03*
%TO.P,U6,2*%
%TO.N,bA4*%
X49276000Y-116078000D03*
%TO.P,U6,9*%
%TO.N,N/C*%
X56896000Y-131318000D03*
D14*
%TO.P,U6,1*%
%TO.N,BOARD_CS#*%
X49276000Y-113538000D03*
%TD*%
D13*
%TO.P,U5,14*%
%TO.N,VCC*%
X80772000Y-116078000D03*
%TO.P,U5,7*%
%TO.N,GND*%
X73152000Y-131318000D03*
%TO.P,U5,13*%
%TO.N,N/C*%
X80772000Y-118618000D03*
%TO.P,U5,6*%
X73152000Y-128778000D03*
%TO.P,U5,12*%
X80772000Y-121158000D03*
%TO.P,U5,5*%
X73152000Y-126238000D03*
%TO.P,U5,11*%
X80772000Y-123698000D03*
%TO.P,U5,4*%
X73152000Y-123698000D03*
%TO.P,U5,10*%
X80772000Y-126238000D03*
%TO.P,U5,3*%
%TO.N,bRW#*%
X73152000Y-121158000D03*
%TO.P,U5,9*%
%TO.N,N/C*%
X80772000Y-128778000D03*
%TO.P,U5,2*%
%TO.N,bWR#*%
X73152000Y-118618000D03*
%TO.P,U5,8*%
%TO.N,N/C*%
X80772000Y-131318000D03*
D14*
%TO.P,U5,1*%
%TO.N,Net-(U4-Pad2)*%
X73152000Y-116078000D03*
%TD*%
D13*
%TO.P,U4,14*%
%TO.N,VCC*%
X68834000Y-116078000D03*
%TO.P,U4,7*%
%TO.N,GND*%
X61214000Y-131318000D03*
%TO.P,U4,13*%
%TO.N,N/C*%
X68834000Y-118618000D03*
%TO.P,U4,6*%
X61214000Y-128778000D03*
%TO.P,U4,12*%
X68834000Y-121158000D03*
%TO.P,U4,5*%
X61214000Y-126238000D03*
%TO.P,U4,11*%
X68834000Y-123698000D03*
%TO.P,U4,4*%
X61214000Y-123698000D03*
%TO.P,U4,10*%
X68834000Y-126238000D03*
%TO.P,U4,3*%
X61214000Y-121158000D03*
%TO.P,U4,9*%
X68834000Y-128778000D03*
%TO.P,U4,2*%
%TO.N,Net-(U4-Pad2)*%
X61214000Y-118618000D03*
%TO.P,U4,8*%
%TO.N,N/C*%
X68834000Y-131318000D03*
D14*
%TO.P,U4,1*%
%TO.N,bRD#*%
X61214000Y-116078000D03*
%TD*%
D12*
%TO.P,P4,2*%
%TO.N,VCC*%
X135382000Y-69850000D03*
D10*
%TO.P,P4,1*%
%TO.N,Net-(P3-Pad3)*%
X135382000Y-67310000D03*
%TD*%
D12*
%TO.P,P3,6*%
%TO.N,Net-(K3-Pad2)*%
X110236000Y-77724000D03*
%TO.P,P3,5*%
%TO.N,TxD*%
X110236000Y-75184000D03*
%TO.P,P3,4*%
%TO.N,RxD*%
X110236000Y-72644000D03*
%TO.P,P3,3*%
%TO.N,Net-(P3-Pad3)*%
X110236000Y-70104000D03*
%TO.P,P3,2*%
%TO.N,RTS*%
X110236000Y-67564000D03*
D10*
%TO.P,P3,1*%
%TO.N,GND*%
X110236000Y-65024000D03*
%TD*%
D11*
%TO.P,X1,4*%
%TO.N,GND*%
X54610000Y-72644000D03*
%TO.P,X1,5*%
%TO.N,Net-(U8-Pad6)*%
X62230000Y-72644000D03*
%TO.P,X1,8*%
%TO.N,VCC*%
X62230000Y-65024000D03*
D14*
%TO.P,X1,1*%
X54610000Y-65024000D03*
%TD*%
D13*
%TO.P,R3,2*%
%TO.N,Net-(R3-Pad2)*%
X141478000Y-100584000D03*
D11*
%TO.P,R3,1*%
%TO.N,GND*%
X133858000Y-100584000D03*
%TD*%
D12*
%TO.P,P2,50*%
%TO.N,SPARE4*%
X74016000Y-143662000D03*
%TO.P,P2,49*%
%TO.N,SPARE5*%
X74016000Y-141122000D03*
%TO.P,P2,48*%
%TO.N,SPARE3*%
X76556000Y-143662000D03*
%TO.P,P2,47*%
%TO.N,SPARE6*%
X76556000Y-141122000D03*
%TO.P,P2,46*%
%TO.N,SPARE2*%
X79096000Y-143662000D03*
%TO.P,P2,45*%
%TO.N,SPARE7*%
X79096000Y-141122000D03*
%TO.P,P2,44*%
%TO.N,SPARE1*%
X81636000Y-143662000D03*
%TO.P,P2,43*%
%TO.N,SPARE8*%
X81636000Y-141122000D03*
%TO.P,P2,42*%
%TO.N,SPARE0*%
X84176000Y-143662000D03*
%TO.P,P2,41*%
%TO.N,SPARE9*%
X84176000Y-141122000D03*
%TO.P,P2,40*%
%TO.N,IORQ#*%
X86716000Y-143662000D03*
%TO.P,P2,39*%
%TO.N,RD#*%
X86716000Y-141122000D03*
%TO.P,P2,38*%
%TO.N,MREQ#*%
X89256000Y-143662000D03*
%TO.P,P2,37*%
%TO.N,WR#*%
X89256000Y-141122000D03*
%TO.P,P2,36*%
%TO.N,HALT#*%
X91796000Y-143662000D03*
%TO.P,P2,35*%
%TO.N,BUSACK#*%
X91796000Y-141122000D03*
%TO.P,P2,34*%
%TO.N,NMI#*%
X94336000Y-143662000D03*
%TO.P,P2,33*%
%TO.N,WAIT#*%
X94336000Y-141122000D03*
%TO.P,P2,32*%
%TO.N,INT#*%
X96876000Y-143662000D03*
%TO.P,P2,31*%
%TO.N,BUSRQ#*%
X96876000Y-141122000D03*
%TO.P,P2,30*%
%TO.N,D1*%
X99416000Y-143662000D03*
%TO.P,P2,29*%
%TO.N,RESET#*%
X99416000Y-141122000D03*
%TO.P,P2,28*%
%TO.N,D0*%
X101956000Y-143662000D03*
%TO.P,P2,27*%
%TO.N,M1#*%
X101956000Y-141122000D03*
%TO.P,P2,26*%
%TO.N,D7*%
X104496000Y-143662000D03*
%TO.P,P2,25*%
%TO.N,RFSH#*%
X104496000Y-141122000D03*
%TO.P,P2,24*%
%TO.N,D2*%
X107036000Y-143662000D03*
%TO.P,P2,23*%
%TO.N,GND*%
X107036000Y-141122000D03*
%TO.P,P2,22*%
%TO.N,VCC*%
X109576000Y-143662000D03*
%TO.P,P2,21*%
%TO.N,A0*%
X109576000Y-141122000D03*
%TO.P,P2,20*%
%TO.N,D6*%
X112116000Y-143662000D03*
%TO.P,P2,19*%
%TO.N,A1*%
X112116000Y-141122000D03*
%TO.P,P2,18*%
%TO.N,D5*%
X114656000Y-143662000D03*
%TO.P,P2,17*%
%TO.N,A2*%
X114656000Y-141122000D03*
%TO.P,P2,16*%
%TO.N,D3*%
X117196000Y-143662000D03*
%TO.P,P2,15*%
%TO.N,A3*%
X117196000Y-141122000D03*
%TO.P,P2,14*%
%TO.N,D4*%
X119736000Y-143662000D03*
%TO.P,P2,13*%
%TO.N,A4*%
X119736000Y-141122000D03*
%TO.P,P2,12*%
%TO.N,CLK*%
X122276000Y-143662000D03*
%TO.P,P2,11*%
%TO.N,A5*%
X122276000Y-141122000D03*
%TO.P,P2,10*%
%TO.N,A15*%
X124816000Y-143662000D03*
%TO.P,P2,9*%
%TO.N,A6*%
X124816000Y-141122000D03*
%TO.P,P2,8*%
%TO.N,A14*%
X127356000Y-143662000D03*
%TO.P,P2,7*%
%TO.N,A7*%
X127356000Y-141122000D03*
%TO.P,P2,6*%
%TO.N,A13*%
X129896000Y-143662000D03*
%TO.P,P2,5*%
%TO.N,A8*%
X129896000Y-141122000D03*
%TO.P,P2,4*%
%TO.N,A12*%
X132436000Y-143662000D03*
%TO.P,P2,3*%
%TO.N,A9*%
X132436000Y-141122000D03*
%TO.P,P2,2*%
%TO.N,A11*%
X134976000Y-143662000D03*
D10*
%TO.P,P2,1*%
%TO.N,A10*%
X134976000Y-141122000D03*
%TD*%
D12*
%TO.P,K3,3*%
%TO.N,DSR*%
X110236000Y-88392000D03*
%TO.P,K3,2*%
%TO.N,Net-(K3-Pad2)*%
X110236000Y-85852000D03*
D10*
%TO.P,K3,1*%
%TO.N,CTS*%
X110236000Y-83312000D03*
%TD*%
D15*
%TO.P,J1,1C*%
%TO.N,GND*%
X133350000Y-49964000D03*
%TO.P,J1,1B*%
X128350000Y-54464000D03*
%TO.P,J1,1A*%
X138350000Y-54464000D03*
D16*
%TO.P,J1,2*%
%TO.N,Net-(C18-Pad2)*%
X133350000Y-54464000D03*
%TD*%
D11*
%TO.P,C18,2*%
%TO.N,Net-(C18-Pad2)*%
X63968000Y-105410000D03*
D14*
%TO.P,C18,1*%
%TO.N,Net-(C18-Pad1)*%
X61468000Y-105410000D03*
%TD*%
D11*
%TO.P,C17,2*%
%TO.N,GND*%
X55880000Y-80264000D03*
D14*
%TO.P,C17,1*%
%TO.N,VCC*%
X53380000Y-80264000D03*
%TD*%
D11*
%TO.P,C16,2*%
%TO.N,Net-(C16-Pad2)*%
X141478000Y-81026000D03*
%TO.P,C16,1*%
%TO.N,Net-(C16-Pad1)*%
X136478000Y-81026000D03*
%TD*%
%TO.P,C15,2*%
%TO.N,Net-(C15-Pad2)*%
X141478000Y-76708000D03*
%TO.P,C15,1*%
%TO.N,Net-(C15-Pad1)*%
X136478000Y-76708000D03*
%TD*%
%TO.P,C14,2*%
%TO.N,GND*%
X63246000Y-80264000D03*
D14*
%TO.P,C14,1*%
%TO.N,+12V*%
X60746000Y-80264000D03*
%TD*%
D11*
%TO.P,C13,2*%
%TO.N,Net-(C13-Pad2)*%
X58674000Y-86948000D03*
%TO.P,C13,1*%
%TO.N,Net-(C13-Pad1)*%
X58674000Y-91948000D03*
%TD*%
%TO.P,C12,2*%
%TO.N,Net-(C12-Pad2)*%
X53340000Y-86868000D03*
%TO.P,C12,1*%
%TO.N,Net-(C12-Pad1)*%
X53340000Y-91868000D03*
%TD*%
%TO.P,C11,2*%
%TO.N,GND*%
X55078000Y-57658000D03*
D14*
%TO.P,C11,1*%
%TO.N,VCC*%
X52578000Y-57658000D03*
%TD*%
D11*
%TO.P,C8,2*%
%TO.N,GND*%
X63500000Y-58674000D03*
%TO.P,C8,1*%
%TO.N,VCC*%
X58500000Y-58674000D03*
%TD*%
%TO.P,C7,2*%
%TO.N,GND*%
X126412000Y-104902000D03*
%TO.P,C7,1*%
%TO.N,VCC*%
X121412000Y-104902000D03*
%TD*%
%TO.P,C6,2*%
%TO.N,GND*%
X114554000Y-104902000D03*
%TO.P,C6,1*%
%TO.N,VCC*%
X109554000Y-104902000D03*
%TD*%
%TO.P,C10,2*%
%TO.N,GND*%
X140970000Y-67350000D03*
D14*
%TO.P,C10,1*%
%TO.N,VCC*%
X140970000Y-69850000D03*
%TD*%
D11*
%TO.P,C9,2*%
%TO.N,GND*%
X49276000Y-140970000D03*
D14*
%TO.P,C9,1*%
%TO.N,VCC*%
X51776000Y-140970000D03*
%TD*%
D13*
%TO.P,U3,20*%
%TO.N,VCC*%
X92350000Y-108460000D03*
%TO.P,U3,10*%
%TO.N,GND*%
X84730000Y-131320000D03*
%TO.P,U3,19*%
X92350000Y-111000000D03*
%TO.P,U3,9*%
%TO.N,/688SEL#*%
X84730000Y-128780000D03*
%TO.P,U3,18*%
%TO.N,bRESET#*%
X92350000Y-113540000D03*
%TO.P,U3,8*%
%TO.N,Net-(U3-Pad8)*%
X84730000Y-126240000D03*
%TO.P,U3,17*%
%TO.N,RD#*%
X92350000Y-116080000D03*
%TO.P,U3,7*%
%TO.N,bM1#*%
X84730000Y-123700000D03*
%TO.P,U3,16*%
%TO.N,Net-(D1-Pad1)*%
X92350000Y-118620000D03*
%TO.P,U3,6*%
%TO.N,Net-(U3-Pad6)*%
X84730000Y-121160000D03*
%TO.P,U3,15*%
%TO.N,WR#*%
X92350000Y-121160000D03*
%TO.P,U3,5*%
%TO.N,bWR#*%
X84730000Y-118620000D03*
%TO.P,U3,14*%
%TO.N,Net-(U3-Pad14)*%
X92350000Y-123700000D03*
%TO.P,U3,4*%
%TO.N,BOARD_CS#*%
X84730000Y-116080000D03*
%TO.P,U3,13*%
%TO.N,M1#*%
X92350000Y-126240000D03*
%TO.P,U3,3*%
%TO.N,bRD#*%
X84730000Y-113540000D03*
%TO.P,U3,12*%
%TO.N,Net-(U3-Pad12)*%
X92350000Y-128780000D03*
%TO.P,U3,2*%
%TO.N,RESET#*%
X84730000Y-111000000D03*
%TO.P,U3,11*%
%TO.N,IORQ#*%
X92350000Y-131320000D03*
D14*
%TO.P,U3,1*%
%TO.N,GND*%
X84730000Y-108460000D03*
%TD*%
D13*
%TO.P,U2,20*%
%TO.N,VCC*%
X103850000Y-108460000D03*
%TO.P,U2,10*%
%TO.N,GND*%
X96230000Y-131320000D03*
%TO.P,U2,19*%
%TO.N,BOARD_CS#*%
X103850000Y-111000000D03*
%TO.P,U2,9*%
%TO.N,D7*%
X96230000Y-128780000D03*
%TO.P,U2,18*%
%TO.N,bD0*%
X103850000Y-113540000D03*
%TO.P,U2,8*%
%TO.N,D6*%
X96230000Y-126240000D03*
%TO.P,U2,17*%
%TO.N,bD1*%
X103850000Y-116080000D03*
%TO.P,U2,7*%
%TO.N,D5*%
X96230000Y-123700000D03*
%TO.P,U2,16*%
%TO.N,bD2*%
X103850000Y-118620000D03*
%TO.P,U2,6*%
%TO.N,D4*%
X96230000Y-121160000D03*
%TO.P,U2,15*%
%TO.N,bD3*%
X103850000Y-121160000D03*
%TO.P,U2,5*%
%TO.N,D3*%
X96230000Y-118620000D03*
%TO.P,U2,14*%
%TO.N,bD4*%
X103850000Y-123700000D03*
%TO.P,U2,4*%
%TO.N,D2*%
X96230000Y-116080000D03*
%TO.P,U2,13*%
%TO.N,bD5*%
X103850000Y-126240000D03*
%TO.P,U2,3*%
%TO.N,D1*%
X96230000Y-113540000D03*
%TO.P,U2,12*%
%TO.N,bD6*%
X103850000Y-128780000D03*
%TO.P,U2,2*%
%TO.N,D0*%
X96230000Y-111000000D03*
%TO.P,U2,11*%
%TO.N,bD7*%
X103850000Y-131320000D03*
D14*
%TO.P,U2,1*%
%TO.N,RD#*%
X96230000Y-108460000D03*
%TD*%
D13*
%TO.P,U1,20*%
%TO.N,VCC*%
X115350000Y-108460000D03*
%TO.P,U1,10*%
%TO.N,GND*%
X107730000Y-131320000D03*
%TO.P,U1,19*%
X115350000Y-111000000D03*
%TO.P,U1,9*%
%TO.N,bA4*%
X107730000Y-128780000D03*
%TO.P,U1,18*%
%TO.N,bA0*%
X115350000Y-113540000D03*
%TO.P,U1,8*%
%TO.N,A3*%
X107730000Y-126240000D03*
%TO.P,U1,17*%
%TO.N,A7*%
X115350000Y-116080000D03*
%TO.P,U1,7*%
%TO.N,bA5*%
X107730000Y-123700000D03*
%TO.P,U1,16*%
%TO.N,bA1*%
X115350000Y-118620000D03*
%TO.P,U1,6*%
%TO.N,A2*%
X107730000Y-121160000D03*
%TO.P,U1,15*%
%TO.N,A6*%
X115350000Y-121160000D03*
%TO.P,U1,5*%
%TO.N,bA6*%
X107730000Y-118620000D03*
%TO.P,U1,14*%
%TO.N,bA2*%
X115350000Y-123700000D03*
%TO.P,U1,4*%
%TO.N,A1*%
X107730000Y-116080000D03*
%TO.P,U1,13*%
%TO.N,A5*%
X115350000Y-126240000D03*
%TO.P,U1,3*%
%TO.N,bA7*%
X107730000Y-113540000D03*
%TO.P,U1,12*%
%TO.N,bA3*%
X115350000Y-128780000D03*
%TO.P,U1,2*%
%TO.N,A0*%
X107730000Y-111000000D03*
%TO.P,U1,11*%
%TO.N,A4*%
X115350000Y-131320000D03*
D14*
%TO.P,U1,1*%
%TO.N,GND*%
X107730000Y-108460000D03*
%TD*%
D13*
%TO.P,SW1,16*%
%TO.N,Net-(RR1-Pad9)*%
X141350000Y-110960000D03*
%TO.P,SW1,8*%
%TO.N,GND*%
X133730000Y-128740000D03*
%TO.P,SW1,15*%
%TO.N,Net-(RR1-Pad8)*%
X141350000Y-113500000D03*
%TO.P,SW1,7*%
%TO.N,GND*%
X133730000Y-126200000D03*
%TO.P,SW1,14*%
%TO.N,Net-(SW1-Pad14)*%
X141350000Y-116040000D03*
%TO.P,SW1,6*%
%TO.N,GND*%
X133730000Y-123660000D03*
%TO.P,SW1,13*%
%TO.N,Net-(SW1-Pad13)*%
X141350000Y-118580000D03*
%TO.P,SW1,5*%
%TO.N,GND*%
X133730000Y-121120000D03*
%TO.P,SW1,12*%
%TO.N,Net-(SW1-Pad12)*%
X141350000Y-121120000D03*
%TO.P,SW1,4*%
%TO.N,GND*%
X133730000Y-118580000D03*
%TO.P,SW1,11*%
%TO.N,Net-(SW1-Pad11)*%
X141350000Y-123660000D03*
%TO.P,SW1,3*%
%TO.N,GND*%
X133730000Y-116040000D03*
%TO.P,SW1,10*%
%TO.N,Net-(SW1-Pad10)*%
X141350000Y-126200000D03*
%TO.P,SW1,2*%
%TO.N,GND*%
X133730000Y-113500000D03*
%TO.P,SW1,9*%
%TO.N,Net-(SW1-Pad9)*%
X141350000Y-128740000D03*
D14*
%TO.P,SW1,1*%
%TO.N,GND*%
X133730000Y-110960000D03*
%TD*%
D13*
%TO.P,RR1,9*%
%TO.N,Net-(RR1-Pad9)*%
X130230000Y-128780000D03*
%TO.P,RR1,8*%
%TO.N,Net-(RR1-Pad8)*%
X130230000Y-126240000D03*
%TO.P,RR1,7*%
%TO.N,Net-(RR1-Pad7)*%
X130230000Y-123700000D03*
%TO.P,RR1,6*%
%TO.N,Net-(RR1-Pad6)*%
X130230000Y-121160000D03*
%TO.P,RR1,5*%
%TO.N,Net-(RR1-Pad5)*%
X130230000Y-118620000D03*
%TO.P,RR1,4*%
%TO.N,Net-(RR1-Pad4)*%
X130230000Y-116080000D03*
%TO.P,RR1,3*%
%TO.N,Net-(RR1-Pad3)*%
X130230000Y-113540000D03*
%TO.P,RR1,2*%
%TO.N,Net-(RR1-Pad2)*%
X130230000Y-111000000D03*
D14*
%TO.P,RR1,1*%
%TO.N,VCC*%
X130230000Y-108460000D03*
%TD*%
D13*
%TO.P,R4,2*%
%TO.N,Net-(C18-Pad2)*%
X48260000Y-75692000D03*
D11*
%TO.P,R4,1*%
%TO.N,GND*%
X48260000Y-83312000D03*
%TD*%
D13*
%TO.P,R2,2*%
%TO.N,VCC*%
X48260000Y-65532000D03*
D11*
%TO.P,R2,1*%
%TO.N,Net-(D2-Pad2)*%
X48260000Y-73152000D03*
%TD*%
D13*
%TO.P,R1,2*%
%TO.N,VCC*%
X48260000Y-62992000D03*
D11*
%TO.P,R1,1*%
%TO.N,Net-(D1-Pad2)*%
X48260000Y-55372000D03*
%TD*%
D17*
%TO.P,H2,1*%
%TO.N,GND*%
X142000000Y-49000000D03*
%TD*%
D18*
%TO.P,H1,1*%
%TO.N,GND*%
X48000000Y-49000000D03*
%TD*%
D19*
%TO.P,D2,2*%
%TO.N,Net-(D2-Pad2)*%
X59888000Y-49750000D03*
D20*
%TO.P,D2,1*%
%TO.N,GND*%
X62428000Y-49750000D03*
%TD*%
D19*
%TO.P,D1,2*%
%TO.N,Net-(D1-Pad2)*%
X51960000Y-49750000D03*
D20*
%TO.P,D1,1*%
%TO.N,Net-(D1-Pad1)*%
X54500000Y-49750000D03*
%TD*%
D11*
%TO.P,C2,2*%
%TO.N,GND*%
X62484000Y-112522000D03*
%TO.P,C2,1*%
%TO.N,VCC*%
X67484000Y-112522000D03*
%TD*%
%TO.P,C5,1*%
%TO.N,VCC*%
X103044000Y-104902000D03*
%TO.P,C5,2*%
%TO.N,GND*%
X98044000Y-104902000D03*
%TD*%
%TO.P,C3,1*%
%TO.N,VCC*%
X79422000Y-112522000D03*
%TO.P,C3,2*%
%TO.N,GND*%
X74422000Y-112522000D03*
%TD*%
%TO.P,C4,2*%
%TO.N,GND*%
X86614000Y-105156000D03*
%TO.P,C4,1*%
%TO.N,VCC*%
X91614000Y-105156000D03*
%TD*%
D12*
%TO.P,K1,3*%
%TO.N,NMI#*%
X79248000Y-105156000D03*
%TO.P,K1,2*%
%TO.N,IRQV#*%
X76708000Y-105156000D03*
D10*
%TO.P,K1,1*%
%TO.N,INT#*%
X74168000Y-105156000D03*
%TD*%
%TO.P,K2,1*%
%TO.N,INT#*%
X110236000Y-92964000D03*
D12*
%TO.P,K2,2*%
%TO.N,IRQA#*%
X110236000Y-95504000D03*
%TO.P,K2,3*%
%TO.N,NMI#*%
X110236000Y-98044000D03*
%TD*%
D21*
%TO.N,GND*%
X121749200Y-133562700D03*
%TO.N,RD#*%
X89483000Y-118793000D03*
%TO.N,WR#*%
X94525800Y-135012600D03*
%TO.N,D6*%
X111057000Y-139300500D03*
%TO.N,A2*%
X111148700Y-124578700D03*
%TO.N,D4*%
X98027000Y-124604300D03*
%TO.N,bA0*%
X72704100Y-77493400D03*
X82681600Y-86930700D03*
%TO.N,bA1*%
X83291900Y-99558100D03*
%TO.N,bA2*%
X110869900Y-62483900D03*
%TO.N,bA3*%
X87894300Y-63650700D03*
X107804000Y-100748900D03*
%TO.N,bD0*%
X105012600Y-103337200D03*
%TO.N,bD1*%
X104213100Y-102638400D03*
%TO.N,bD2*%
X86652600Y-84714900D03*
X102133300Y-101313000D03*
%TO.N,bD3*%
X93618400Y-82711300D03*
%TO.N,bD5*%
X97176300Y-75655400D03*
%TO.N,bD7*%
X98949500Y-78259600D03*
%TO.N,bRESET#*%
X99421400Y-67618600D03*
X86387100Y-66482600D03*
%TO.N,Net-(U8-Pad6)*%
X66256100Y-75549300D03*
%TO.N,TxD*%
X97283600Y-81863200D03*
%TO.N,RxD*%
X99415400Y-79149300D03*
%TO.N,bRW#*%
X111931800Y-86026900D03*
X78414300Y-101866500D03*
%TD*%
D22*
%TO.N,VCC*%
X84328000Y-90424000D02*
X85843200Y-91939200D01*
X85843200Y-91939200D02*
X85843200Y-99385200D01*
X85843200Y-99385200D02*
X91614000Y-105156000D01*
X109554000Y-104902000D02*
X111792000Y-104902000D01*
X111792000Y-104902000D02*
X115350000Y-108460000D01*
X109554000Y-104902000D02*
X109554000Y-101071700D01*
X109554000Y-101071700D02*
X106526300Y-98044000D01*
X106526300Y-98044000D02*
X104902000Y-98044000D01*
X120650000Y-61722000D02*
X120650000Y-62992000D01*
X120650000Y-62992000D02*
X130302000Y-72644000D01*
X120396000Y-61468000D02*
X120650000Y-61722000D01*
X130230000Y-108460000D02*
X131823900Y-106866100D01*
X131823900Y-106866100D02*
X131823900Y-74165900D01*
X131823900Y-74165900D02*
X130302000Y-72644000D01*
X120396000Y-61468000D02*
X120396000Y-54864000D01*
X101358700Y-61721500D02*
X101441900Y-61638300D01*
X101441900Y-61638300D02*
X103828700Y-61638300D01*
X103828700Y-61638300D02*
X103999000Y-61468000D01*
X103999000Y-61468000D02*
X120396000Y-61468000D01*
X101358700Y-61721500D02*
X99857500Y-60220400D01*
X99857500Y-60220400D02*
X95735600Y-60220400D01*
X95735600Y-60220400D02*
X94234000Y-61722000D01*
X89662000Y-67564000D02*
X91593500Y-67564000D01*
X91593500Y-67564000D02*
X92137800Y-67019700D01*
X92137800Y-67019700D02*
X93835300Y-67019700D01*
X93835300Y-67019700D02*
X95217500Y-65637500D01*
X95217500Y-65637500D02*
X97442700Y-65637500D01*
X97442700Y-65637500D02*
X101358700Y-61721500D01*
X69734100Y-114772100D02*
X69734100Y-115177900D01*
X69734100Y-115177900D02*
X68834000Y-116078000D01*
X67484000Y-112522000D02*
X69734100Y-114772100D01*
X78420500Y-113726500D02*
X77569400Y-114577600D01*
X77569400Y-114577600D02*
X69928600Y-114577600D01*
X69928600Y-114577600D02*
X69734100Y-114772100D01*
X56896000Y-113538000D02*
X59448600Y-110985400D01*
X59448600Y-110985400D02*
X65947400Y-110985400D01*
X65947400Y-110985400D02*
X67484000Y-112522000D01*
X78420500Y-113726500D02*
X80772000Y-116078000D01*
X79422000Y-112522000D02*
X78420500Y-113523500D01*
X78420500Y-113523500D02*
X78420500Y-113726500D01*
X54186900Y-113538000D02*
X54186900Y-113368900D01*
X54186900Y-113368900D02*
X50546000Y-109728000D01*
X51776000Y-140970000D02*
X54186900Y-138559100D01*
X54186900Y-138559100D02*
X54186900Y-113538000D01*
X54186900Y-113538000D02*
X56896000Y-113538000D01*
X56896000Y-102870000D02*
X54893400Y-100867400D01*
X54893400Y-100867400D02*
X54893400Y-81777400D01*
X54893400Y-81777400D02*
X53380000Y-80264000D01*
X53380000Y-80264000D02*
X53096300Y-79980300D01*
X53096300Y-79980300D02*
X53096300Y-66537700D01*
X53096300Y-66537700D02*
X54610000Y-65024000D01*
X48260000Y-62992000D02*
X48260000Y-65532000D01*
X52578000Y-57658000D02*
X52578000Y-62992000D01*
X52578000Y-62992000D02*
X54610000Y-65024000D01*
%TO.N,GND*%
X99234000Y-61722000D02*
X96947000Y-64009000D01*
X96947000Y-64009000D02*
X90677000Y-64009000D01*
X90677000Y-64009000D02*
X89662000Y-65024000D01*
X55078000Y-57658000D02*
X56110400Y-58690400D01*
X56110400Y-58690400D02*
X56110400Y-71143600D01*
X56110400Y-71143600D02*
X54610000Y-72644000D01*
X55880000Y-80264000D02*
X55880000Y-73914000D01*
X55880000Y-73914000D02*
X54610000Y-72644000D01*
X62484000Y-112522000D02*
X62137700Y-112522000D01*
X62137700Y-112522000D02*
X59684600Y-114975100D01*
X59684600Y-114975100D02*
X59684600Y-129788600D01*
X59684600Y-129788600D02*
X61214000Y-131318000D01*
X121749200Y-133562700D02*
X121472700Y-133562700D01*
X121472700Y-133562700D02*
X119230000Y-131320000D01*
X107036000Y-141122000D02*
X107036000Y-132014000D01*
X107036000Y-132014000D02*
X107730000Y-131320000D01*
X84730000Y-131320000D02*
X83201200Y-132848800D01*
X83201200Y-132848800D02*
X74682800Y-132848800D01*
X74682800Y-132848800D02*
X73152000Y-131318000D01*
X74422000Y-112522000D02*
X70247700Y-108347700D01*
X70247700Y-108347700D02*
X65786000Y-108347700D01*
X114554000Y-104902000D02*
X115062000Y-104394000D01*
X115062000Y-104394000D02*
X115062000Y-98044000D01*
X65786000Y-108347700D02*
X56926300Y-108347700D01*
X56926300Y-108347700D02*
X55546000Y-109728000D01*
X65786000Y-108347700D02*
X65786000Y-98044000D01*
X65786000Y-98044000D02*
X63958100Y-96216100D01*
X63958100Y-96216100D02*
X57188800Y-96216100D01*
X56896000Y-95250000D02*
X56896000Y-95923300D01*
X56896000Y-95923300D02*
X57188800Y-96216100D01*
X56896000Y-81801500D02*
X56896000Y-95250000D01*
X57188800Y-96216100D02*
X56896000Y-96508900D01*
X56896000Y-96508900D02*
X56896000Y-97790000D01*
X140970000Y-67350000D02*
X138350000Y-64730000D01*
X138350000Y-64730000D02*
X138350000Y-54464000D01*
X56896000Y-81801500D02*
X56896000Y-81280000D01*
X56896000Y-81280000D02*
X55880000Y-80264000D01*
X56896000Y-81801500D02*
X61827000Y-81801500D01*
X61827000Y-81801500D02*
X63246000Y-80382500D01*
X63246000Y-80382500D02*
X63246000Y-80264000D01*
X98044000Y-104902000D02*
X97138800Y-104902000D01*
X97138800Y-104902000D02*
X94714600Y-107326200D01*
X94714600Y-107326200D02*
X94714600Y-108635400D01*
X94714600Y-108635400D02*
X92350000Y-111000000D01*
X127432400Y-54464000D02*
X127432400Y-59939600D01*
X127432400Y-59939600D02*
X125650000Y-61722000D01*
X120396000Y-52324000D02*
X121956900Y-50763100D01*
X121956900Y-50763100D02*
X123731500Y-50763100D01*
X123731500Y-50763100D02*
X127432400Y-54464000D01*
X127432400Y-54464000D02*
X128350000Y-54464000D01*
X133730000Y-113500000D02*
X133730000Y-110960000D01*
X133858000Y-100584000D02*
X133858000Y-94742000D01*
X133730000Y-126200000D02*
X133730000Y-128740000D01*
X133730000Y-123660000D02*
X133730000Y-126200000D01*
X133730000Y-121120000D02*
X133730000Y-123660000D01*
X133730000Y-118580000D02*
X133730000Y-121120000D01*
X133730000Y-116040000D02*
X133730000Y-118580000D01*
X133730000Y-113500000D02*
X133730000Y-116040000D01*
D23*
%TO.N,Net-(RR1-Pad8)*%
X130230000Y-126240000D02*
X129104600Y-125114600D01*
X129104600Y-125114600D02*
X129104600Y-120874600D01*
X129104600Y-120874600D02*
X126850000Y-118620000D01*
%TO.N,Net-(RR1-Pad9)*%
X130230000Y-128780000D02*
X131378100Y-127631900D01*
X131378100Y-127631900D02*
X131378100Y-120706200D01*
X131378100Y-120706200D02*
X130561900Y-119890000D01*
X130561900Y-119890000D02*
X129901100Y-119890000D01*
X129901100Y-119890000D02*
X128264600Y-118253500D01*
X128264600Y-118253500D02*
X128264600Y-114954600D01*
X128264600Y-114954600D02*
X126850000Y-113540000D01*
%TO.N,Net-(D1-Pad2)*%
X51960000Y-49750000D02*
X48260000Y-53450000D01*
X48260000Y-53450000D02*
X48260000Y-55372000D01*
%TO.N,Net-(D2-Pad2)*%
X59888000Y-49750000D02*
X58662600Y-48524600D01*
X58662600Y-48524600D02*
X53440200Y-48524600D01*
X53440200Y-48524600D02*
X53274600Y-48690200D01*
X53274600Y-48690200D02*
X53274600Y-54038500D01*
X53274600Y-54038500D02*
X50564500Y-56748600D01*
X50564500Y-56748600D02*
X50564500Y-70847500D01*
X50564500Y-70847500D02*
X48260000Y-73152000D01*
%TO.N,/688SEL#*%
X84730000Y-128780000D02*
X85855400Y-129905400D01*
X85855400Y-129905400D02*
X85855400Y-140082400D01*
X85855400Y-140082400D02*
X85497200Y-140440600D01*
X85497200Y-140440600D02*
X85497200Y-144209600D01*
X85497200Y-144209600D02*
X86603300Y-145315700D01*
X86603300Y-145315700D02*
X127396500Y-145315700D01*
X127396500Y-145315700D02*
X128571100Y-144141100D01*
X128571100Y-144141100D02*
X128571100Y-135535900D01*
X128571100Y-135535900D02*
X120831300Y-127796100D01*
X120831300Y-127796100D02*
X120831300Y-110061300D01*
X120831300Y-110061300D02*
X119230000Y-108460000D01*
%TO.N,+12V*%
X130302000Y-65024000D02*
X133099700Y-67821700D01*
X133099700Y-67821700D02*
X133099700Y-76047700D01*
X133099700Y-76047700D02*
X141478000Y-84426000D01*
X141478000Y-84426000D02*
X141478000Y-87122000D01*
%TO.N,Net-(C18-Pad2)*%
X63968000Y-105410000D02*
X62842700Y-104284700D01*
X62842700Y-104284700D02*
X56643400Y-104284700D01*
X56643400Y-104284700D02*
X52214700Y-99856000D01*
X52214700Y-99856000D02*
X52214700Y-79646700D01*
X52214700Y-79646700D02*
X48260000Y-75692000D01*
%TO.N,Net-(C18-Pad1)*%
X133858000Y-87122000D02*
X133858000Y-89662000D01*
%TO.N,Net-(D1-Pad1)*%
X54500000Y-49750000D02*
X61009800Y-56259800D01*
X61009800Y-56259800D02*
X61009800Y-73852400D01*
X61009800Y-73852400D02*
X66474600Y-79317200D01*
X66474600Y-79317200D02*
X66474600Y-94546400D01*
X66474600Y-94546400D02*
X68702200Y-96774000D01*
X68702200Y-96774000D02*
X75156700Y-96774000D01*
X75156700Y-96774000D02*
X89343300Y-110960600D01*
X89343300Y-110960600D02*
X89343300Y-112394300D01*
X89343300Y-112394300D02*
X90431700Y-113482700D01*
X90431700Y-113482700D02*
X90431700Y-116002400D01*
X90431700Y-116002400D02*
X92350000Y-117920700D01*
X92350000Y-117920700D02*
X92350000Y-118620000D01*
%TO.N,NMI#*%
X79248000Y-105156000D02*
X79248000Y-107175600D01*
X79248000Y-107175600D02*
X84197800Y-112125400D01*
X84197800Y-112125400D02*
X84921300Y-112125400D01*
X84921300Y-112125400D02*
X88405100Y-115609200D01*
X88405100Y-115609200D02*
X88405100Y-116830600D01*
X88405100Y-116830600D02*
X90138600Y-118564100D01*
X90138600Y-118564100D02*
X90138600Y-125620200D01*
X90138600Y-125620200D02*
X92028400Y-127510000D01*
X92028400Y-127510000D02*
X92752000Y-127510000D01*
X92752000Y-127510000D02*
X93475400Y-128233400D01*
X93475400Y-128233400D02*
X93475400Y-131995000D01*
X93475400Y-131995000D02*
X93160400Y-132310000D01*
X93160400Y-132310000D02*
X93160400Y-142486400D01*
X93160400Y-142486400D02*
X94336000Y-143662000D01*
%TO.N,INT#*%
X96876000Y-143662000D02*
X98089700Y-142448300D01*
X98089700Y-142448300D02*
X98089700Y-131588200D01*
X98089700Y-131588200D02*
X96696200Y-130194700D01*
X96696200Y-130194700D02*
X95996700Y-130194700D01*
X95996700Y-130194700D02*
X95104700Y-129302700D01*
X95104700Y-129302700D02*
X95104700Y-122306400D01*
X95104700Y-122306400D02*
X92543700Y-119745400D01*
X92543700Y-119745400D02*
X91826200Y-119745400D01*
X91826200Y-119745400D02*
X91138900Y-119058100D01*
X91138900Y-119058100D02*
X91138900Y-117359800D01*
X91138900Y-117359800D02*
X89981200Y-116202100D01*
X89981200Y-116202100D02*
X89981200Y-114598200D01*
X89981200Y-114598200D02*
X85151500Y-109768500D01*
X85151500Y-109768500D02*
X83978400Y-109768500D01*
X83978400Y-109768500D02*
X83604700Y-109394800D01*
X83604700Y-109394800D02*
X83604700Y-106103300D01*
X83604700Y-106103300D02*
X78742600Y-101241200D01*
X78742600Y-101241200D02*
X78082800Y-101241200D01*
X78082800Y-101241200D02*
X74168000Y-105156000D01*
%TO.N,IRQA#*%
X110236000Y-95504000D02*
X108124400Y-93392400D01*
X108124400Y-93392400D02*
X108124400Y-73326400D01*
X108124400Y-73326400D02*
X104902000Y-70104000D01*
%TO.N,Net-(K3-Pad2)*%
X110236000Y-77724000D02*
X111411400Y-78899400D01*
X111411400Y-78899400D02*
X111411400Y-84676600D01*
X111411400Y-84676600D02*
X110236000Y-85852000D01*
%TO.N,SLAVE_CLK*%
X104902000Y-67564000D02*
X109060700Y-71722700D01*
X109060700Y-71722700D02*
X109060700Y-73130900D01*
X109060700Y-73130900D02*
X109749100Y-73819300D01*
X109749100Y-73819300D02*
X111157300Y-73819300D01*
X111157300Y-73819300D02*
X115062000Y-77724000D01*
%TO.N,IORQ#*%
X92350000Y-131320000D02*
X87986000Y-135684000D01*
X87986000Y-135684000D02*
X87986000Y-142392000D01*
X87986000Y-142392000D02*
X86716000Y-143662000D01*
%TO.N,RD#*%
X89483000Y-118793000D02*
X86716000Y-121560000D01*
X86716000Y-121560000D02*
X86716000Y-141122000D01*
%TO.N,WR#*%
X92350000Y-121160000D02*
X94525800Y-123335800D01*
X94525800Y-123335800D02*
X94525800Y-135012600D01*
%TO.N,D1*%
X96230000Y-113540000D02*
X96230000Y-114176800D01*
X96230000Y-114176800D02*
X99328300Y-117275100D01*
X99328300Y-117275100D02*
X99328300Y-132740100D01*
X99328300Y-132740100D02*
X103137900Y-136549700D01*
X103137900Y-136549700D02*
X103137900Y-144220400D01*
X103137900Y-144220400D02*
X102493000Y-144865300D01*
X102493000Y-144865300D02*
X100619300Y-144865300D01*
X100619300Y-144865300D02*
X99416000Y-143662000D01*
%TO.N,RESET#*%
X84730000Y-111000000D02*
X88855400Y-115125400D01*
X88855400Y-115125400D02*
X88855400Y-116007000D01*
X88855400Y-116007000D02*
X90634100Y-117785700D01*
X90634100Y-117785700D02*
X90634100Y-121080000D01*
X90634100Y-121080000D02*
X91984100Y-122430000D01*
X91984100Y-122430000D02*
X92684700Y-122430000D01*
X92684700Y-122430000D02*
X93925900Y-123671200D01*
X93925900Y-123671200D02*
X93925900Y-134728200D01*
X93925900Y-134728200D02*
X93900500Y-134753600D01*
X93900500Y-134753600D02*
X93900500Y-135281200D01*
X93900500Y-135281200D02*
X95700000Y-137080700D01*
X95700000Y-137080700D02*
X95700000Y-144148900D01*
X95700000Y-144148900D02*
X96416400Y-144865300D01*
X96416400Y-144865300D02*
X97339100Y-144865300D01*
X97339100Y-144865300D02*
X98146000Y-144058400D01*
X98146000Y-144058400D02*
X98146000Y-143149300D01*
X98146000Y-143149300D02*
X99416000Y-141879300D01*
X99416000Y-141879300D02*
X99416000Y-141122000D01*
%TO.N,D0*%
X96230000Y-111000000D02*
X94644300Y-112585700D01*
X94644300Y-112585700D02*
X94644300Y-116147700D01*
X94644300Y-116147700D02*
X95846600Y-117350000D01*
X95846600Y-117350000D02*
X96570500Y-117350000D01*
X96570500Y-117350000D02*
X98652400Y-119431900D01*
X98652400Y-119431900D02*
X98652400Y-133413800D01*
X98652400Y-133413800D02*
X100686000Y-135447400D01*
X100686000Y-135447400D02*
X100686000Y-142392000D01*
X100686000Y-142392000D02*
X101956000Y-143662000D01*
%TO.N,D2*%
X96230000Y-116080000D02*
X95094600Y-114944600D01*
X95094600Y-114944600D02*
X95094600Y-113070300D01*
X95094600Y-113070300D02*
X95796800Y-112368100D01*
X95796800Y-112368100D02*
X96650500Y-112368100D01*
X96650500Y-112368100D02*
X98341700Y-114059300D01*
X98341700Y-114059300D02*
X98341700Y-115333400D01*
X98341700Y-115333400D02*
X99778700Y-116770400D01*
X99778700Y-116770400D02*
X99778700Y-132481100D01*
X99778700Y-132481100D02*
X105766000Y-138468400D01*
X105766000Y-138468400D02*
X105766000Y-142392000D01*
X105766000Y-142392000D02*
X107036000Y-143662000D01*
%TO.N,A0*%
X107730000Y-111000000D02*
X109576000Y-112846000D01*
X109576000Y-112846000D02*
X109576000Y-141122000D01*
%TO.N,D6*%
X111057000Y-139300500D02*
X111960900Y-139300500D01*
X111960900Y-139300500D02*
X113296700Y-140636300D01*
X113296700Y-140636300D02*
X113296700Y-142481300D01*
X113296700Y-142481300D02*
X112116000Y-143662000D01*
%TO.N,A1*%
X107730000Y-116080000D02*
X108873700Y-117223700D01*
X108873700Y-117223700D02*
X108873700Y-131972300D01*
X108873700Y-131972300D02*
X108400600Y-132445400D01*
X108400600Y-132445400D02*
X108400600Y-141647600D01*
X108400600Y-141647600D02*
X109051900Y-142298900D01*
X109051900Y-142298900D02*
X110939100Y-142298900D01*
X110939100Y-142298900D02*
X112116000Y-141122000D01*
%TO.N,A2*%
X114656000Y-141122000D02*
X111148700Y-137614700D01*
X111148700Y-137614700D02*
X111148700Y-124578700D01*
%TO.N,D4*%
X96230000Y-121160000D02*
X98027000Y-122957000D01*
X98027000Y-122957000D02*
X98027000Y-124604300D01*
%TO.N,A4*%
X115350000Y-131320000D02*
X115350000Y-136736000D01*
X115350000Y-136736000D02*
X119736000Y-141122000D01*
%TO.N,A5*%
X115350000Y-126240000D02*
X116475300Y-127365300D01*
X116475300Y-127365300D02*
X116475300Y-135321300D01*
X116475300Y-135321300D02*
X122276000Y-141122000D01*
%TO.N,A6*%
X115350000Y-121160000D02*
X114208700Y-122301300D01*
X114208700Y-122301300D02*
X114208700Y-124152300D01*
X114208700Y-124152300D02*
X115046400Y-124990000D01*
X115046400Y-124990000D02*
X115760900Y-124990000D01*
X115760900Y-124990000D02*
X116971400Y-126200500D01*
X116971400Y-126200500D02*
X116971400Y-133277400D01*
X116971400Y-133277400D02*
X124816000Y-141122000D01*
%TO.N,A7*%
X115350000Y-116080000D02*
X117646800Y-118376800D01*
X117646800Y-118376800D02*
X117646800Y-131412800D01*
X117646800Y-131412800D02*
X127356000Y-141122000D01*
%TO.N,CB2*%
X69088000Y-95504000D02*
X67035600Y-93451600D01*
X67035600Y-93451600D02*
X67035600Y-55278500D01*
X67035600Y-55278500D02*
X68720100Y-53594000D01*
X68720100Y-53594000D02*
X70213400Y-53594000D01*
X70213400Y-53594000D02*
X76526100Y-47281300D01*
X76526100Y-47281300D02*
X107733300Y-47281300D01*
X107733300Y-47281300D02*
X112776000Y-52324000D01*
%TO.N,CB1*%
X69088000Y-92964000D02*
X81460000Y-80592000D01*
X81460000Y-80592000D02*
X81460000Y-68789000D01*
X81460000Y-68789000D02*
X83810400Y-66438600D01*
X83810400Y-66438600D02*
X84505000Y-66438600D01*
X84505000Y-66438600D02*
X86148900Y-64794700D01*
X86148900Y-64794700D02*
X86148900Y-64471600D01*
X86148900Y-64471600D02*
X92368000Y-58252500D01*
X92368000Y-58252500D02*
X103438500Y-58252500D01*
X103438500Y-58252500D02*
X106426000Y-55265000D01*
X106426000Y-55265000D02*
X106426000Y-54467600D01*
X106426000Y-54467600D02*
X107299600Y-53594000D01*
X107299600Y-53594000D02*
X108966000Y-53594000D01*
X108966000Y-53594000D02*
X110236000Y-52324000D01*
%TO.N,PB7*%
X107696000Y-52324000D02*
X106331400Y-53688600D01*
X106331400Y-53688600D02*
X104605000Y-53688600D01*
X104605000Y-53688600D02*
X103886000Y-54407600D01*
X103886000Y-54407600D02*
X103886000Y-55256400D01*
X103886000Y-55256400D02*
X101565300Y-57577100D01*
X101565300Y-57577100D02*
X91437100Y-57577100D01*
X91437100Y-57577100D02*
X85366100Y-63648100D01*
X85366100Y-63648100D02*
X84107500Y-63648100D01*
X84107500Y-63648100D02*
X80279900Y-67475700D01*
X80279900Y-67475700D02*
X80279900Y-79232100D01*
X80279900Y-79232100D02*
X69088000Y-90424000D01*
%TO.N,PB6*%
X69088000Y-87884000D02*
X75760700Y-81211300D01*
X75760700Y-81211300D02*
X75760700Y-69394400D01*
X75760700Y-69394400D02*
X83941100Y-61214000D01*
X83941100Y-61214000D02*
X86740500Y-61214000D01*
X86740500Y-61214000D02*
X90827700Y-57126800D01*
X90827700Y-57126800D02*
X99475600Y-57126800D01*
X99475600Y-57126800D02*
X101346000Y-55256400D01*
X101346000Y-55256400D02*
X101346000Y-54467600D01*
X101346000Y-54467600D02*
X102219600Y-53594000D01*
X102219600Y-53594000D02*
X103886000Y-53594000D01*
X103886000Y-53594000D02*
X105156000Y-52324000D01*
%TO.N,PB5*%
X69088000Y-85344000D02*
X74505300Y-79926700D01*
X74505300Y-79926700D02*
X74505300Y-68173500D01*
X74505300Y-68173500D02*
X84004800Y-58674000D01*
X84004800Y-58674000D02*
X85453400Y-58674000D01*
X85453400Y-58674000D02*
X87451000Y-56676400D01*
X87451000Y-56676400D02*
X97396700Y-56676400D01*
X97396700Y-56676400D02*
X98806000Y-55267100D01*
X98806000Y-55267100D02*
X98806000Y-54467600D01*
X98806000Y-54467600D02*
X99679600Y-53594000D01*
X99679600Y-53594000D02*
X101346000Y-53594000D01*
X101346000Y-53594000D02*
X102616000Y-52324000D01*
%TO.N,PB4*%
X69088000Y-82804000D02*
X73604700Y-78287300D01*
X73604700Y-78287300D02*
X73604700Y-66486700D01*
X73604700Y-66486700D02*
X83985100Y-56106300D01*
X83985100Y-56106300D02*
X95440700Y-56106300D01*
X95440700Y-56106300D02*
X96266000Y-55281000D01*
X96266000Y-55281000D02*
X96266000Y-54454600D01*
X96266000Y-54454600D02*
X97126600Y-53594000D01*
X97126600Y-53594000D02*
X98806000Y-53594000D01*
X98806000Y-53594000D02*
X100076000Y-52324000D01*
%TO.N,PB3*%
X97536000Y-52324000D02*
X92963400Y-47751400D01*
X92963400Y-47751400D02*
X82770900Y-47751400D01*
X82770900Y-47751400D02*
X74388300Y-56134000D01*
X74388300Y-56134000D02*
X68746300Y-56134000D01*
X68746300Y-56134000D02*
X67486000Y-57394300D01*
X67486000Y-57394300D02*
X67486000Y-78662000D01*
X67486000Y-78662000D02*
X69088000Y-80264000D01*
%TO.N,PB2*%
X94996000Y-52324000D02*
X91324200Y-48652200D01*
X91324200Y-48652200D02*
X83867600Y-48652200D01*
X83867600Y-48652200D02*
X70213600Y-62306200D01*
X70213600Y-62306200D02*
X70213600Y-68058400D01*
X70213600Y-68058400D02*
X69293300Y-68978700D01*
X69293300Y-68978700D02*
X68621800Y-68978700D01*
X68621800Y-68978700D02*
X67936400Y-69664100D01*
X67936400Y-69664100D02*
X67936400Y-76572400D01*
X67936400Y-76572400D02*
X69088000Y-77724000D01*
%TO.N,PA2*%
X94996000Y-54864000D02*
X96173200Y-53686800D01*
X96173200Y-53686800D02*
X96173200Y-51774800D01*
X96173200Y-51774800D02*
X92600200Y-48201800D01*
X92600200Y-48201800D02*
X83594200Y-48201800D01*
X83594200Y-48201800D02*
X74392000Y-57404000D01*
X74392000Y-57404000D02*
X69088000Y-57404000D01*
%TO.N,PB1*%
X69088000Y-75184000D02*
X71339500Y-72932500D01*
X71339500Y-72932500D02*
X71339500Y-66260000D01*
X71339500Y-66260000D02*
X83910900Y-53688600D01*
X83910900Y-53688600D02*
X91091400Y-53688600D01*
X91091400Y-53688600D02*
X92456000Y-52324000D01*
%TO.N,PB0*%
X69088000Y-72644000D02*
X70889100Y-70842900D01*
X70889100Y-70842900D02*
X70889100Y-64106100D01*
X70889100Y-64106100D02*
X83861800Y-51133400D01*
X83861800Y-51133400D02*
X88725400Y-51133400D01*
X88725400Y-51133400D02*
X89916000Y-52324000D01*
%TO.N,Net-(R3-Pad2)*%
X130302000Y-67564000D02*
X132649300Y-69911300D01*
X132649300Y-69911300D02*
X132649300Y-90993300D01*
X132649300Y-90993300D02*
X133858000Y-92202000D01*
X141478000Y-100584000D02*
X133858000Y-92964000D01*
X133858000Y-92964000D02*
X133858000Y-92202000D01*
%TO.N,bA4*%
X107730000Y-128780000D02*
X106582700Y-127632700D01*
X106582700Y-127632700D02*
X106582700Y-101694100D01*
X106582700Y-101694100D02*
X103753600Y-98865000D01*
X103753600Y-98865000D02*
X103753600Y-97596800D01*
X103753600Y-97596800D02*
X104576400Y-96774000D01*
X104576400Y-96774000D02*
X113792000Y-96774000D01*
X113792000Y-96774000D02*
X115062000Y-95504000D01*
%TO.N,bA0*%
X72704100Y-77493400D02*
X72704100Y-66487900D01*
X72704100Y-66487900D02*
X84328000Y-54864000D01*
X89662000Y-95504000D02*
X87522600Y-93364600D01*
X87522600Y-93364600D02*
X87522600Y-91962800D01*
X87522600Y-91962800D02*
X84713800Y-89154000D01*
X84713800Y-89154000D02*
X83929000Y-89154000D01*
X83929000Y-89154000D02*
X82681600Y-87906600D01*
X82681600Y-87906600D02*
X82681600Y-86930700D01*
X115350000Y-113540000D02*
X117398000Y-111492000D01*
X117398000Y-111492000D02*
X117398000Y-87680000D01*
X117398000Y-87680000D02*
X115062000Y-85344000D01*
%TO.N,bA1*%
X84328000Y-57404000D02*
X74055000Y-67677000D01*
X74055000Y-67677000D02*
X74055000Y-79496400D01*
X74055000Y-79496400D02*
X69477400Y-84074000D01*
X69477400Y-84074000D02*
X68746300Y-84074000D01*
X68746300Y-84074000D02*
X67958900Y-84861400D01*
X67958900Y-84861400D02*
X67958900Y-93485900D01*
X67958900Y-93485900D02*
X68707000Y-94234000D01*
X68707000Y-94234000D02*
X77967800Y-94234000D01*
X77967800Y-94234000D02*
X83291900Y-99558100D01*
X115062000Y-87884000D02*
X113897400Y-89048600D01*
X113897400Y-89048600D02*
X113897400Y-90917100D01*
X113897400Y-90917100D02*
X114647500Y-91667200D01*
X114647500Y-91667200D02*
X115358300Y-91667200D01*
X115358300Y-91667200D02*
X116494300Y-92803200D01*
X116494300Y-92803200D02*
X116494300Y-108924400D01*
X116494300Y-108924400D02*
X115688700Y-109730000D01*
X115688700Y-109730000D02*
X114983600Y-109730000D01*
X114983600Y-109730000D02*
X113736000Y-110977600D01*
X113736000Y-110977600D02*
X113736000Y-117006000D01*
X113736000Y-117006000D02*
X115350000Y-118620000D01*
%TO.N,bA2*%
X115350000Y-123700000D02*
X116496500Y-122553500D01*
X116496500Y-122553500D02*
X116496500Y-118091800D01*
X116496500Y-118091800D02*
X115754700Y-117350000D01*
X115754700Y-117350000D02*
X114976400Y-117350000D01*
X114976400Y-117350000D02*
X114186400Y-116560000D01*
X114186400Y-116560000D02*
X114186400Y-113064300D01*
X114186400Y-113064300D02*
X114980700Y-112270000D01*
X114980700Y-112270000D02*
X115732500Y-112270000D01*
X115732500Y-112270000D02*
X116947600Y-111054900D01*
X116947600Y-111054900D02*
X116947600Y-92309600D01*
X116947600Y-92309600D02*
X115062000Y-90424000D01*
X110869900Y-62483900D02*
X113563700Y-65177700D01*
X113563700Y-65177700D02*
X113563700Y-67722400D01*
X113563700Y-67722400D02*
X114675300Y-68834000D01*
X114675300Y-68834000D02*
X115431400Y-68834000D01*
X115431400Y-68834000D02*
X116721300Y-70123900D01*
X116721300Y-70123900D02*
X116721300Y-80199600D01*
X116721300Y-80199600D02*
X115531500Y-81389400D01*
X115531500Y-81389400D02*
X114813000Y-81389400D01*
X114813000Y-81389400D02*
X113932000Y-82270400D01*
X113932000Y-82270400D02*
X113932000Y-85811500D01*
X113932000Y-85811500D02*
X114734500Y-86614000D01*
X114734500Y-86614000D02*
X115454900Y-86614000D01*
X115454900Y-86614000D02*
X116221200Y-87380300D01*
X116221200Y-87380300D02*
X116221200Y-89264800D01*
X116221200Y-89264800D02*
X115062000Y-90424000D01*
%TO.N,bA3*%
X115062000Y-92964000D02*
X113103900Y-92964000D01*
X113103900Y-92964000D02*
X108574800Y-88434900D01*
X108574800Y-88434900D02*
X108574800Y-72170800D01*
X108574800Y-72170800D02*
X105238000Y-68834000D01*
X105238000Y-68834000D02*
X89274400Y-68834000D01*
X89274400Y-68834000D02*
X87894300Y-67453900D01*
X87894300Y-67453900D02*
X87894300Y-63650700D01*
X115350000Y-128780000D02*
X112319600Y-125749600D01*
X112319600Y-125749600D02*
X112319600Y-109467700D01*
X112319600Y-109467700D02*
X107804000Y-104952100D01*
X107804000Y-104952100D02*
X107804000Y-100748900D01*
%TO.N,bD0*%
X84328000Y-67564000D02*
X86073200Y-65818800D01*
X86073200Y-65818800D02*
X86637200Y-65818800D01*
X86637200Y-65818800D02*
X87078200Y-66259800D01*
X87078200Y-66259800D02*
X87078200Y-69114900D01*
X87078200Y-69114900D02*
X89337300Y-71374000D01*
X89337300Y-71374000D02*
X105223700Y-71374000D01*
X105223700Y-71374000D02*
X107429600Y-73579900D01*
X107429600Y-73579900D02*
X107429600Y-87896400D01*
X107429600Y-87896400D02*
X104902000Y-90424000D01*
X105012600Y-103337200D02*
X105012600Y-102553500D01*
X105012600Y-102553500D02*
X103276200Y-100817100D01*
X103276200Y-100817100D02*
X103276200Y-92049800D01*
X103276200Y-92049800D02*
X104902000Y-90424000D01*
X103850000Y-113540000D02*
X105012600Y-112377400D01*
X105012600Y-112377400D02*
X105012600Y-103337200D01*
%TO.N,bD1*%
X104902000Y-87884000D02*
X106960900Y-85825100D01*
X106960900Y-85825100D02*
X106960900Y-75617700D01*
X106960900Y-75617700D02*
X105257200Y-73914000D01*
X105257200Y-73914000D02*
X88138000Y-73914000D01*
X88138000Y-73914000D02*
X84328000Y-70104000D01*
X104213100Y-102638400D02*
X102789300Y-101214600D01*
X102789300Y-101214600D02*
X102789300Y-89996700D01*
X102789300Y-89996700D02*
X104902000Y-87884000D01*
X103850000Y-116080000D02*
X103850000Y-115190600D01*
X103850000Y-115190600D02*
X102717700Y-114058300D01*
X102717700Y-114058300D02*
X102717700Y-107869100D01*
X102717700Y-107869100D02*
X104213100Y-106373700D01*
X104213100Y-106373700D02*
X104213100Y-102638400D01*
%TO.N,bD2*%
X86652600Y-84714900D02*
X86652600Y-83478600D01*
X86652600Y-83478600D02*
X84708000Y-81534000D01*
X84708000Y-81534000D02*
X83985400Y-81534000D01*
X83985400Y-81534000D02*
X82691900Y-80240500D01*
X82691900Y-80240500D02*
X82691900Y-74280100D01*
X82691900Y-74280100D02*
X84328000Y-72644000D01*
X102133300Y-101313000D02*
X102133300Y-88112700D01*
X102133300Y-88112700D02*
X104902000Y-85344000D01*
X102133300Y-101313000D02*
X101891200Y-101555100D01*
X101891200Y-101555100D02*
X101891200Y-113907100D01*
X101891200Y-113907100D02*
X102724600Y-114740500D01*
X102724600Y-114740500D02*
X102724600Y-117494600D01*
X102724600Y-117494600D02*
X103850000Y-118620000D01*
%TO.N,bD3*%
X93618400Y-82711300D02*
X92441100Y-81534000D01*
X92441100Y-81534000D02*
X87398200Y-81534000D01*
X87398200Y-81534000D02*
X84858200Y-78994000D01*
X84858200Y-78994000D02*
X83966100Y-78994000D01*
X83966100Y-78994000D02*
X83198000Y-78225900D01*
X83198000Y-78225900D02*
X83198000Y-76314000D01*
X83198000Y-76314000D02*
X84328000Y-75184000D01*
X103850000Y-121160000D02*
X101809600Y-119119600D01*
X101809600Y-119119600D02*
X101809600Y-115604400D01*
X101809600Y-115604400D02*
X100990600Y-114785400D01*
X100990600Y-114785400D02*
X100990600Y-86715400D01*
X100990600Y-86715400D02*
X104902000Y-82804000D01*
%TO.N,bD4*%
X100880400Y-80264000D02*
X100049500Y-81094900D01*
X100049500Y-81094900D02*
X100049500Y-115436500D01*
X100049500Y-115436500D02*
X100732500Y-116119500D01*
X100732500Y-116119500D02*
X100732500Y-120582500D01*
X100732500Y-120582500D02*
X103850000Y-123700000D01*
X100880400Y-80264000D02*
X100880400Y-79306100D01*
X100880400Y-79306100D02*
X98171300Y-76597000D01*
X98171300Y-76597000D02*
X85455000Y-76597000D01*
X85455000Y-76597000D02*
X84328000Y-77724000D01*
X100880400Y-80264000D02*
X104902000Y-80264000D01*
%TO.N,bD5*%
X97176300Y-75655400D02*
X102833400Y-75655400D01*
X102833400Y-75655400D02*
X104902000Y-77724000D01*
X104902000Y-77724000D02*
X106035900Y-78857900D01*
X106035900Y-78857900D02*
X106035900Y-80784400D01*
X106035900Y-80784400D02*
X105286300Y-81534000D01*
X105286300Y-81534000D02*
X104574500Y-81534000D01*
X104574500Y-81534000D02*
X100540300Y-85568200D01*
X100540300Y-85568200D02*
X100540300Y-115290300D01*
X100540300Y-115290300D02*
X101182800Y-115932800D01*
X101182800Y-115932800D02*
X101182800Y-120158500D01*
X101182800Y-120158500D02*
X103454300Y-122430000D01*
X103454300Y-122430000D02*
X104195800Y-122430000D01*
X104195800Y-122430000D02*
X104999600Y-123233800D01*
X104999600Y-123233800D02*
X104999600Y-125090400D01*
X104999600Y-125090400D02*
X103850000Y-126240000D01*
%TO.N,bD6*%
X103850000Y-128780000D02*
X105482700Y-127147300D01*
X105482700Y-127147300D02*
X105482700Y-121178300D01*
X105482700Y-121178300D02*
X104194400Y-119890000D01*
X104194400Y-119890000D02*
X103461200Y-119890000D01*
X103461200Y-119890000D02*
X102260000Y-118688800D01*
X102260000Y-118688800D02*
X102260000Y-115099400D01*
X102260000Y-115099400D02*
X101440900Y-114280300D01*
X101440900Y-114280300D02*
X101440900Y-87211900D01*
X101440900Y-87211900D02*
X104578800Y-84074000D01*
X104578800Y-84074000D02*
X105308800Y-84074000D01*
X105308800Y-84074000D02*
X106510500Y-82872300D01*
X106510500Y-82872300D02*
X106510500Y-76792500D01*
X106510500Y-76792500D02*
X104902000Y-75184000D01*
%TO.N,bD7*%
X88508600Y-86758600D02*
X90455500Y-86758600D01*
X90455500Y-86758600D02*
X98949500Y-78264600D01*
X98949500Y-78264600D02*
X98949500Y-78259600D01*
X88508600Y-86758600D02*
X88508600Y-93459500D01*
X88508600Y-93459500D02*
X89283100Y-94234000D01*
X89283100Y-94234000D02*
X90029700Y-94234000D01*
X90029700Y-94234000D02*
X99376000Y-103580300D01*
X99376000Y-103580300D02*
X99376000Y-115399900D01*
X99376000Y-115399900D02*
X100282100Y-116306000D01*
X100282100Y-116306000D02*
X100282100Y-127752100D01*
X100282100Y-127752100D02*
X103850000Y-131320000D01*
X88508600Y-86758600D02*
X87094000Y-85344000D01*
X87094000Y-85344000D02*
X84328000Y-85344000D01*
%TO.N,bRESET#*%
X99421400Y-67618600D02*
X103169900Y-63870100D01*
X103169900Y-63870100D02*
X105413200Y-63870100D01*
X105413200Y-63870100D02*
X108641000Y-67097900D01*
X108641000Y-67097900D02*
X108641000Y-67640500D01*
X108641000Y-67640500D02*
X109834500Y-68834000D01*
X109834500Y-68834000D02*
X110644700Y-68834000D01*
X110644700Y-68834000D02*
X113010500Y-71199800D01*
X113010500Y-71199800D02*
X113010500Y-73132500D01*
X113010500Y-73132500D02*
X115062000Y-75184000D01*
X86387100Y-68967100D02*
X83827900Y-68967100D01*
X83827900Y-68967100D02*
X82049400Y-70745600D01*
X82049400Y-70745600D02*
X82049400Y-97392500D01*
X82049400Y-97392500D02*
X90384200Y-105727300D01*
X90384200Y-105727300D02*
X90384200Y-111574200D01*
X90384200Y-111574200D02*
X92350000Y-113540000D01*
X89662000Y-72644000D02*
X86387100Y-69369100D01*
X86387100Y-69369100D02*
X86387100Y-68967100D01*
X86387100Y-68967100D02*
X86387100Y-66482600D01*
%TO.N,Net-(U8-Pad6)*%
X62230000Y-72644000D02*
X63350800Y-72644000D01*
X63350800Y-72644000D02*
X66256100Y-75549300D01*
%TO.N,bM1#*%
X119230000Y-126240000D02*
X120363200Y-125106800D01*
X120363200Y-125106800D02*
X120363200Y-122293200D01*
X120363200Y-122293200D02*
X119230000Y-121160000D01*
X119230000Y-121160000D02*
X118104600Y-120034600D01*
X118104600Y-120034600D02*
X118104600Y-117205400D01*
X118104600Y-117205400D02*
X119230000Y-116080000D01*
X119230000Y-111000000D02*
X118104600Y-112125400D01*
X118104600Y-112125400D02*
X118104600Y-114954600D01*
X118104600Y-114954600D02*
X119230000Y-116080000D01*
%TO.N,TxD*%
X97283600Y-81863200D02*
X91262800Y-87884000D01*
X91262800Y-87884000D02*
X89662000Y-87884000D01*
%TO.N,RxD*%
X89662000Y-92964000D02*
X99415400Y-83210600D01*
X99415400Y-83210600D02*
X99415400Y-79149300D01*
%TO.N,Net-(U4-Pad2)*%
X61214000Y-118618000D02*
X62484000Y-117348000D01*
X62484000Y-117348000D02*
X71882000Y-117348000D01*
X71882000Y-117348000D02*
X73152000Y-116078000D01*
%TO.N,bRW#*%
X73152000Y-121158000D02*
X76962000Y-117348000D01*
X76962000Y-117348000D02*
X81113500Y-117348000D01*
X81113500Y-117348000D02*
X81900900Y-116560600D01*
X81900900Y-116560600D02*
X81900900Y-110814700D01*
X81900900Y-110814700D02*
X78070200Y-106984000D01*
X78070200Y-106984000D02*
X78070200Y-102210600D01*
X78070200Y-102210600D02*
X78414300Y-101866500D01*
X115062000Y-80264000D02*
X116198600Y-79127400D01*
X116198600Y-79127400D02*
X116198600Y-77198700D01*
X116198600Y-77198700D02*
X115453900Y-76454000D01*
X115453900Y-76454000D02*
X114685100Y-76454000D01*
X114685100Y-76454000D02*
X112465500Y-74234400D01*
X112465500Y-74234400D02*
X112465500Y-73201800D01*
X112465500Y-73201800D02*
X110637700Y-71374000D01*
X110637700Y-71374000D02*
X109837300Y-71374000D01*
X109837300Y-71374000D02*
X106316600Y-67853300D01*
X106316600Y-67853300D02*
X106316600Y-66438600D01*
X106316600Y-66438600D02*
X104902000Y-65024000D01*
X111931800Y-86026900D02*
X111931800Y-83394200D01*
X111931800Y-83394200D02*
X115062000Y-80264000D01*
%TD*%
M02*
