M48
; DRILL file {KiCad (6.0.4-0)} date Sunday, September 18, 2022 at 07:18:15 PM
; FORMAT={2:4/ absolute / inch / suppress leading zeros}
; #@! TF.CreationDate,2022-09-18T19:18:15-04:00
; #@! TF.GenerationSoftware,Kicad,Pcbnew,(6.0.4-0)
; #@! TF.FileFunction,Plated,1,2,PTH
FMAT,2
INCH,TZ
; #@! TA.AperFunction,Plated,PTH,ViaDrill
T1C0.0157
; #@! TA.AperFunction,Plated,PTH,ComponentDrill
T2C0.0315
; #@! TA.AperFunction,Plated,PTH,ComponentDrill
T3C0.0354
; #@! TA.AperFunction,Plated,PTH,ComponentDrill
T4C0.0394
; #@! TA.AperFunction,Plated,PTH,ComponentDrill
T5C0.0669
; #@! TA.AperFunction,Plated,PTH,ComponentDrill
T6C0.0866
; #@! TA.AperFunction,Plated,PTH,ComponentDrill
T7C0.1024
%
G90
G05
T1
X26085Y-29744
X28624Y-30509
X30872Y-40105
X32552Y-34225
X32792Y-39196
X34011Y-26174
X34115Y-33352
X34604Y-25059
X35230Y-46769
X36858Y-32564
X37215Y-53155
X38258Y-29786
X38301Y-32230
X38593Y-49057
X38956Y-30811
X39140Y-31161
X39142Y-26621
X40210Y-39887
X41029Y-40409
X41344Y-40684
X42443Y-39665
X43650Y-24600
X43723Y-54843
X43759Y-49047
X44068Y-33869
X47933Y-52584
T2
X19000Y-21800
X19000Y-24800
X19000Y-25800
X19000Y-28800
X19000Y-29800
X19000Y-32800
X19400Y-37500
X19400Y-38500
X19400Y-39500
X19400Y-40500
X19400Y-44700
X19400Y-45700
X19400Y-46700
X19400Y-47700
X19400Y-48700
X19400Y-49700
X19400Y-50700
X19400Y-51700
X19400Y-55500
X19900Y-43200
X20384Y-55500
X20700Y-22700
X21000Y-34200
X21000Y-36169
X21016Y-31600
X21500Y-25600
X21500Y-28600
X21684Y-22700
X21869Y-43200
X22000Y-31600
X22400Y-37500
X22400Y-38500
X22400Y-39500
X22400Y-40500
X22400Y-44700
X22400Y-45700
X22400Y-46700
X22400Y-47700
X22400Y-48700
X22400Y-49700
X22400Y-50700
X22400Y-51700
X23031Y-23100
X23100Y-34231
X23100Y-36200
X23916Y-31600
X23931Y-38600
X24100Y-45700
X24100Y-46700
X24100Y-47700
X24100Y-48700
X24100Y-49700
X24100Y-50700
X24100Y-51700
X24200Y-41500
X24500Y-25600
X24500Y-28600
X24600Y-44300
X24900Y-31600
X25000Y-23100
X25184Y-41500
X25900Y-38600
X26569Y-44300
X27100Y-45700
X27100Y-46700
X27100Y-47700
X27100Y-48700
X27100Y-49700
X27100Y-50700
X27100Y-51700
X27200Y-19600
X27200Y-20600
X27200Y-21600
X27200Y-22600
X27200Y-23600
X27200Y-24600
X27200Y-25600
X27200Y-26600
X27200Y-27600
X27200Y-28600
X27200Y-29600
X27200Y-30600
X27200Y-31600
X27200Y-32600
X27200Y-33600
X27200Y-34600
X27200Y-35600
X27200Y-36600
X27200Y-37600
X27200Y-38600
X28800Y-45700
X28800Y-46700
X28800Y-47700
X28800Y-48700
X28800Y-49700
X28800Y-50700
X28800Y-51700
X29300Y-44300
X31269Y-44300
X31800Y-45700
X31800Y-46700
X31800Y-47700
X31800Y-48700
X31800Y-49700
X31800Y-50700
X31800Y-51700
X33200Y-19600
X33200Y-20600
X33200Y-21600
X33200Y-22600
X33200Y-23600
X33200Y-24600
X33200Y-25600
X33200Y-26600
X33200Y-27600
X33200Y-28600
X33200Y-29600
X33200Y-30600
X33200Y-31600
X33200Y-32600
X33200Y-33600
X33200Y-34600
X33200Y-35600
X33200Y-36600
X33200Y-37600
X33200Y-38600
X33358Y-42701
X33358Y-43701
X33358Y-44701
X33358Y-45701
X33358Y-46701
X33358Y-47701
X33358Y-48701
X33358Y-49701
X33358Y-50701
X33358Y-51701
X34100Y-41400
X35300Y-25600
X35300Y-26600
X35300Y-27600
X35300Y-28600
X35300Y-29600
X35300Y-30600
X35300Y-31600
X35300Y-32600
X35300Y-33600
X35300Y-34600
X35300Y-35600
X35300Y-36600
X35300Y-37600
X35300Y-38600
X36069Y-41400
X36358Y-42701
X36358Y-43701
X36358Y-44701
X36358Y-45701
X36358Y-46701
X36358Y-47701
X36358Y-48701
X36358Y-49701
X36358Y-50701
X36358Y-51701
X37100Y-24300
X37886Y-42701
X37886Y-43701
X37886Y-44701
X37886Y-45701
X37886Y-46701
X37886Y-47701
X37886Y-48701
X37886Y-49701
X37886Y-50701
X37886Y-51701
X38600Y-41300
X39069Y-24300
X40569Y-41300
X40886Y-42701
X40886Y-43701
X40886Y-44701
X40886Y-45701
X40886Y-46701
X40886Y-47701
X40886Y-48701
X40886Y-49701
X40886Y-50701
X40886Y-51701
X41300Y-25600
X41300Y-26600
X41300Y-27600
X41300Y-28600
X41300Y-29600
X41300Y-30600
X41300Y-31600
X41300Y-32600
X41300Y-33600
X41300Y-34600
X41300Y-35600
X41300Y-36600
X41300Y-37600
X41300Y-38600
X42413Y-42701
X42413Y-43701
X42413Y-44701
X42413Y-45701
X42413Y-46701
X42413Y-47701
X42413Y-48701
X42413Y-49701
X42413Y-50701
X42413Y-51701
X43131Y-41300
X45100Y-41300
X45300Y-25600
X45300Y-26600
X45300Y-27600
X45300Y-28600
X45300Y-29600
X45300Y-30600
X45300Y-31600
X45300Y-32600
X45300Y-33600
X45300Y-34600
X45300Y-35600
X45300Y-36600
X45300Y-37600
X45300Y-38600
X45413Y-42701
X45413Y-43701
X45413Y-44701
X45413Y-45701
X45413Y-46701
X45413Y-47701
X45413Y-48701
X45413Y-49701
X45413Y-50701
X45413Y-51701
X46941Y-42701
X46941Y-43701
X46941Y-44701
X46941Y-45701
X46941Y-46701
X46941Y-47701
X46941Y-48701
X46941Y-49701
X46941Y-50701
X46941Y-51701
X47500Y-24300
X47800Y-41300
X49469Y-24300
X49769Y-41300
X49941Y-42701
X49941Y-43701
X49941Y-44701
X49941Y-45701
X49941Y-46701
X49941Y-47701
X49941Y-48701
X49941Y-49701
X49941Y-50701
X49941Y-51701
X51272Y-42701
X51272Y-43701
X51272Y-44701
X51272Y-45701
X51272Y-46701
X51272Y-47701
X51272Y-48701
X51272Y-49701
X51272Y-50701
X51300Y-25600
X51300Y-26600
X51300Y-27600
X51300Y-28600
X51300Y-29600
X51300Y-30600
X51300Y-31600
X51300Y-32600
X51300Y-33600
X51300Y-34600
X51300Y-35600
X51300Y-36600
X51300Y-37600
X51300Y-38600
X52650Y-43685
X52650Y-44685
X52650Y-45685
X52650Y-46685
X52650Y-47685
X52650Y-48685
X52650Y-49685
X52650Y-50685
X52700Y-34300
X52700Y-35300
X52700Y-36300
X52700Y-37300
X52700Y-39600
X53731Y-30200
X53731Y-31900
X55500Y-26516
X55500Y-27500
X55650Y-43685
X55650Y-44685
X55650Y-45685
X55650Y-46685
X55650Y-47685
X55650Y-48685
X55650Y-49685
X55650Y-50685
X55700Y-30200
X55700Y-31900
X55700Y-34300
X55700Y-35300
X55700Y-36300
X55700Y-37300
X55700Y-39600
T3
X20457Y-19587
X21457Y-19587
X23578Y-19587
X24578Y-19587
T4
X25200Y-35600
X29140Y-55560
X29140Y-56560
X29200Y-41400
X30140Y-55560
X30140Y-56560
X30200Y-41400
X31140Y-55560
X31140Y-56560
X31200Y-41400
X32140Y-55560
X32140Y-56560
X33140Y-55560
X33140Y-56560
X34140Y-55560
X34140Y-56560
X35140Y-55560
X35140Y-56560
X35400Y-20600
X35400Y-21600
X36140Y-55560
X36140Y-56560
X36400Y-20600
X36400Y-21600
X37140Y-55560
X37140Y-56560
X37400Y-20600
X37400Y-21600
X38140Y-55560
X38140Y-56560
X38400Y-20600
X38400Y-21600
X39140Y-55560
X39140Y-56560
X39400Y-20600
X39400Y-21600
X40140Y-55560
X40140Y-56560
X40400Y-20600
X40400Y-21600
X41140Y-55560
X41140Y-56560
X41400Y-20600
X41400Y-21600
X42140Y-55560
X42140Y-56560
X42400Y-20600
X42400Y-21600
X43140Y-55560
X43140Y-56560
X43400Y-20600
X43400Y-21600
X43400Y-25600
X43400Y-26600
X43400Y-27600
X43400Y-28600
X43400Y-29600
X43400Y-30600
X43400Y-32800
X43400Y-33800
X43400Y-34800
X43400Y-36600
X43400Y-37600
X43400Y-38600
X44140Y-55560
X44140Y-56560
X44400Y-20600
X44400Y-21600
X45140Y-55560
X45140Y-56560
X45400Y-20600
X45400Y-21600
X46140Y-55560
X46140Y-56560
X46400Y-20600
X46400Y-21600
X47140Y-55560
X47140Y-56560
X47400Y-20600
X47400Y-21600
X48140Y-55560
X48140Y-56560
X48400Y-20600
X48400Y-21600
X49140Y-55560
X49140Y-56560
X50140Y-55560
X50140Y-56560
X51140Y-55560
X51140Y-56560
X52140Y-55560
X52140Y-56560
X53140Y-55560
X53140Y-56560
X53300Y-26500
X53300Y-27500
T5
X52500Y-21443
T6
X18898Y-19291
X55906Y-19291
T7
X50531Y-21443
X52500Y-19671
X54469Y-21443
T0
M30
