%TF.GenerationSoftware,KiCad,Pcbnew,(6.0.4-0)*%
%TF.CreationDate,2022-09-18T19:18:22-04:00*%
%TF.ProjectId,Z80-6502IO,5a38302d-3635-4303-9249-4f2e6b696361,rev?*%
%TF.SameCoordinates,Original*%
%TF.FileFunction,Soldermask,Bot*%
%TF.FilePolarity,Negative*%
%FSLAX46Y46*%
G04 Gerber Fmt 4.6, Leading zero omitted, Abs format (unit mm)*
G04 Created by KiCad (PCBNEW (6.0.4-0)) date 2022-09-18 19:18:22*
%MOMM*%
%LPD*%
G01*
G04 APERTURE LIST*
%ADD10R,1.700000X1.700000*%
%ADD11C,1.600000*%
%ADD12O,1.700000X1.700000*%
%ADD13O,1.600000X1.600000*%
%ADD14R,1.600000X1.600000*%
%ADD15C,3.616000*%
%ADD16C,2.550000*%
%ADD17C,4.399999*%
%ADD18C,4.400000*%
%ADD19C,1.800000*%
%ADD20R,1.800000X1.800000*%
G04 APERTURE END LIST*
D10*
%TO.C,P1*%
X64008000Y-90424000D03*
%TD*%
D11*
%TO.C,C21*%
X125650000Y-61722000D03*
X120650000Y-61722000D03*
%TD*%
%TO.C,C20*%
X99234000Y-61722000D03*
X94234000Y-61722000D03*
%TD*%
%TO.C,C19*%
X65786000Y-98044000D03*
X60786000Y-98044000D03*
%TD*%
D12*
%TO.C,P5*%
X122936000Y-52324000D03*
X122936000Y-54864000D03*
X120396000Y-52324000D03*
X120396000Y-54864000D03*
X117856000Y-52324000D03*
X117856000Y-54864000D03*
X115316000Y-52324000D03*
X115316000Y-54864000D03*
X112776000Y-52324000D03*
X112776000Y-54864000D03*
X110236000Y-52324000D03*
X110236000Y-54864000D03*
X107696000Y-52324000D03*
X107696000Y-54864000D03*
X105156000Y-52324000D03*
X105156000Y-54864000D03*
X102616000Y-52324000D03*
X102616000Y-54864000D03*
X100076000Y-52324000D03*
X100076000Y-54864000D03*
X97536000Y-52324000D03*
X97536000Y-54864000D03*
X94996000Y-52324000D03*
X94996000Y-54864000D03*
X92456000Y-52324000D03*
X92456000Y-54864000D03*
X89916000Y-52324000D03*
D10*
X89916000Y-54864000D03*
%TD*%
D11*
%TO.C,C1*%
X55546000Y-109728000D03*
X50546000Y-109728000D03*
%TD*%
D13*
%TO.C,U7*%
X126850000Y-108460000D03*
X119230000Y-131320000D03*
X126850000Y-111000000D03*
X119230000Y-128780000D03*
X126850000Y-113540000D03*
X119230000Y-126240000D03*
X126850000Y-116080000D03*
X119230000Y-123700000D03*
X126850000Y-118620000D03*
X119230000Y-121160000D03*
X126850000Y-121160000D03*
X119230000Y-118620000D03*
X126850000Y-123700000D03*
X119230000Y-116080000D03*
X126850000Y-126240000D03*
X119230000Y-113540000D03*
X126850000Y-128780000D03*
X119230000Y-111000000D03*
X126850000Y-131320000D03*
D14*
X119230000Y-108460000D03*
%TD*%
D13*
%TO.C,U12*%
X141478000Y-87122000D03*
X133858000Y-94742000D03*
X141478000Y-89662000D03*
X133858000Y-92202000D03*
X141478000Y-92202000D03*
X133858000Y-89662000D03*
X141478000Y-94742000D03*
D14*
X133858000Y-87122000D03*
%TD*%
D13*
%TO.C,U11*%
X56896000Y-95250000D03*
X49276000Y-102870000D03*
X56896000Y-97790000D03*
X49276000Y-100330000D03*
X56896000Y-100330000D03*
X49276000Y-97790000D03*
X56896000Y-102870000D03*
D14*
X49276000Y-95250000D03*
%TD*%
D13*
%TO.C,U10*%
X130302000Y-65024000D03*
X115062000Y-98044000D03*
X130302000Y-67564000D03*
X115062000Y-95504000D03*
X130302000Y-70104000D03*
X115062000Y-92964000D03*
X130302000Y-72644000D03*
X115062000Y-90424000D03*
X130302000Y-75184000D03*
X115062000Y-87884000D03*
X130302000Y-77724000D03*
X115062000Y-85344000D03*
X130302000Y-80264000D03*
X115062000Y-82804000D03*
X130302000Y-82804000D03*
X115062000Y-80264000D03*
X130302000Y-85344000D03*
X115062000Y-77724000D03*
X130302000Y-87884000D03*
X115062000Y-75184000D03*
X130302000Y-90424000D03*
X115062000Y-72644000D03*
X130302000Y-92964000D03*
X115062000Y-70104000D03*
X130302000Y-95504000D03*
X115062000Y-67564000D03*
X130302000Y-98044000D03*
D14*
X115062000Y-65024000D03*
%TD*%
D13*
%TO.C,U9*%
X84328000Y-49784000D03*
X69088000Y-98044000D03*
X84328000Y-52324000D03*
X69088000Y-95504000D03*
X84328000Y-54864000D03*
X69088000Y-92964000D03*
X84328000Y-57404000D03*
X69088000Y-90424000D03*
X84328000Y-59944000D03*
X69088000Y-87884000D03*
X84328000Y-62484000D03*
X69088000Y-85344000D03*
X84328000Y-65024000D03*
X69088000Y-82804000D03*
X84328000Y-67564000D03*
X69088000Y-80264000D03*
X84328000Y-70104000D03*
X69088000Y-77724000D03*
X84328000Y-72644000D03*
X69088000Y-75184000D03*
X84328000Y-75184000D03*
X69088000Y-72644000D03*
X84328000Y-77724000D03*
X69088000Y-70104000D03*
X84328000Y-80264000D03*
X69088000Y-67564000D03*
X84328000Y-82804000D03*
X69088000Y-65024000D03*
X84328000Y-85344000D03*
X69088000Y-62484000D03*
X84328000Y-87884000D03*
X69088000Y-59944000D03*
X84328000Y-90424000D03*
X69088000Y-57404000D03*
X84328000Y-92964000D03*
X69088000Y-54864000D03*
X84328000Y-95504000D03*
X69088000Y-52324000D03*
X84328000Y-98044000D03*
D14*
X69088000Y-49784000D03*
%TD*%
D13*
%TO.C,U8*%
X104902000Y-65024000D03*
X89662000Y-98044000D03*
X104902000Y-67564000D03*
X89662000Y-95504000D03*
X104902000Y-70104000D03*
X89662000Y-92964000D03*
X104902000Y-72644000D03*
X89662000Y-90424000D03*
X104902000Y-75184000D03*
X89662000Y-87884000D03*
X104902000Y-77724000D03*
X89662000Y-85344000D03*
X104902000Y-80264000D03*
X89662000Y-82804000D03*
X104902000Y-82804000D03*
X89662000Y-80264000D03*
X104902000Y-85344000D03*
X89662000Y-77724000D03*
X104902000Y-87884000D03*
X89662000Y-75184000D03*
X104902000Y-90424000D03*
X89662000Y-72644000D03*
X104902000Y-92964000D03*
X89662000Y-70104000D03*
X104902000Y-95504000D03*
X89662000Y-67564000D03*
X104902000Y-98044000D03*
D14*
X89662000Y-65024000D03*
%TD*%
D13*
%TO.C,U6*%
X56896000Y-113538000D03*
X49276000Y-131318000D03*
X56896000Y-116078000D03*
X49276000Y-128778000D03*
X56896000Y-118618000D03*
X49276000Y-126238000D03*
X56896000Y-121158000D03*
X49276000Y-123698000D03*
X56896000Y-123698000D03*
X49276000Y-121158000D03*
X56896000Y-126238000D03*
X49276000Y-118618000D03*
X56896000Y-128778000D03*
X49276000Y-116078000D03*
X56896000Y-131318000D03*
D14*
X49276000Y-113538000D03*
%TD*%
D13*
%TO.C,U5*%
X80772000Y-116078000D03*
X73152000Y-131318000D03*
X80772000Y-118618000D03*
X73152000Y-128778000D03*
X80772000Y-121158000D03*
X73152000Y-126238000D03*
X80772000Y-123698000D03*
X73152000Y-123698000D03*
X80772000Y-126238000D03*
X73152000Y-121158000D03*
X80772000Y-128778000D03*
X73152000Y-118618000D03*
X80772000Y-131318000D03*
D14*
X73152000Y-116078000D03*
%TD*%
D13*
%TO.C,U4*%
X68834000Y-116078000D03*
X61214000Y-131318000D03*
X68834000Y-118618000D03*
X61214000Y-128778000D03*
X68834000Y-121158000D03*
X61214000Y-126238000D03*
X68834000Y-123698000D03*
X61214000Y-123698000D03*
X68834000Y-126238000D03*
X61214000Y-121158000D03*
X68834000Y-128778000D03*
X61214000Y-118618000D03*
X68834000Y-131318000D03*
D14*
X61214000Y-116078000D03*
%TD*%
D12*
%TO.C,P4*%
X135382000Y-69850000D03*
D10*
X135382000Y-67310000D03*
%TD*%
D12*
%TO.C,P3*%
X110236000Y-77724000D03*
X110236000Y-75184000D03*
X110236000Y-72644000D03*
X110236000Y-70104000D03*
X110236000Y-67564000D03*
D10*
X110236000Y-65024000D03*
%TD*%
D11*
%TO.C,X1*%
X54610000Y-72644000D03*
X62230000Y-72644000D03*
X62230000Y-65024000D03*
D14*
X54610000Y-65024000D03*
%TD*%
D13*
%TO.C,R3*%
X141478000Y-100584000D03*
D11*
X133858000Y-100584000D03*
%TD*%
D12*
%TO.C,P2*%
X74016000Y-143662000D03*
X74016000Y-141122000D03*
X76556000Y-143662000D03*
X76556000Y-141122000D03*
X79096000Y-143662000D03*
X79096000Y-141122000D03*
X81636000Y-143662000D03*
X81636000Y-141122000D03*
X84176000Y-143662000D03*
X84176000Y-141122000D03*
X86716000Y-143662000D03*
X86716000Y-141122000D03*
X89256000Y-143662000D03*
X89256000Y-141122000D03*
X91796000Y-143662000D03*
X91796000Y-141122000D03*
X94336000Y-143662000D03*
X94336000Y-141122000D03*
X96876000Y-143662000D03*
X96876000Y-141122000D03*
X99416000Y-143662000D03*
X99416000Y-141122000D03*
X101956000Y-143662000D03*
X101956000Y-141122000D03*
X104496000Y-143662000D03*
X104496000Y-141122000D03*
X107036000Y-143662000D03*
X107036000Y-141122000D03*
X109576000Y-143662000D03*
X109576000Y-141122000D03*
X112116000Y-143662000D03*
X112116000Y-141122000D03*
X114656000Y-143662000D03*
X114656000Y-141122000D03*
X117196000Y-143662000D03*
X117196000Y-141122000D03*
X119736000Y-143662000D03*
X119736000Y-141122000D03*
X122276000Y-143662000D03*
X122276000Y-141122000D03*
X124816000Y-143662000D03*
X124816000Y-141122000D03*
X127356000Y-143662000D03*
X127356000Y-141122000D03*
X129896000Y-143662000D03*
X129896000Y-141122000D03*
X132436000Y-143662000D03*
X132436000Y-141122000D03*
X134976000Y-143662000D03*
D10*
X134976000Y-141122000D03*
%TD*%
D12*
%TO.C,K3*%
X110236000Y-88392000D03*
X110236000Y-85852000D03*
D10*
X110236000Y-83312000D03*
%TD*%
D15*
%TO.C,J1*%
X133350000Y-49964000D03*
X128350000Y-54464000D03*
X138350000Y-54464000D03*
D16*
X133350000Y-54464000D03*
%TD*%
D11*
%TO.C,C18*%
X63968000Y-105410000D03*
D14*
X61468000Y-105410000D03*
%TD*%
D11*
%TO.C,C17*%
X55880000Y-80264000D03*
D14*
X53380000Y-80264000D03*
%TD*%
D11*
%TO.C,C16*%
X141478000Y-81026000D03*
X136478000Y-81026000D03*
%TD*%
%TO.C,C15*%
X141478000Y-76708000D03*
X136478000Y-76708000D03*
%TD*%
%TO.C,C14*%
X63246000Y-80264000D03*
D14*
X60746000Y-80264000D03*
%TD*%
D11*
%TO.C,C13*%
X58674000Y-86948000D03*
X58674000Y-91948000D03*
%TD*%
%TO.C,C12*%
X53340000Y-86868000D03*
X53340000Y-91868000D03*
%TD*%
%TO.C,C11*%
X55078000Y-57658000D03*
D14*
X52578000Y-57658000D03*
%TD*%
D11*
%TO.C,C8*%
X63500000Y-58674000D03*
X58500000Y-58674000D03*
%TD*%
%TO.C,C7*%
X126412000Y-104902000D03*
X121412000Y-104902000D03*
%TD*%
%TO.C,C6*%
X114554000Y-104902000D03*
X109554000Y-104902000D03*
%TD*%
%TO.C,C10*%
X140970000Y-67350000D03*
D14*
X140970000Y-69850000D03*
%TD*%
D11*
%TO.C,C9*%
X49276000Y-140970000D03*
D14*
X51776000Y-140970000D03*
%TD*%
D13*
%TO.C,U3*%
X92350000Y-108460000D03*
X84730000Y-131320000D03*
X92350000Y-111000000D03*
X84730000Y-128780000D03*
X92350000Y-113540000D03*
X84730000Y-126240000D03*
X92350000Y-116080000D03*
X84730000Y-123700000D03*
X92350000Y-118620000D03*
X84730000Y-121160000D03*
X92350000Y-121160000D03*
X84730000Y-118620000D03*
X92350000Y-123700000D03*
X84730000Y-116080000D03*
X92350000Y-126240000D03*
X84730000Y-113540000D03*
X92350000Y-128780000D03*
X84730000Y-111000000D03*
X92350000Y-131320000D03*
D14*
X84730000Y-108460000D03*
%TD*%
D13*
%TO.C,U2*%
X103850000Y-108460000D03*
X96230000Y-131320000D03*
X103850000Y-111000000D03*
X96230000Y-128780000D03*
X103850000Y-113540000D03*
X96230000Y-126240000D03*
X103850000Y-116080000D03*
X96230000Y-123700000D03*
X103850000Y-118620000D03*
X96230000Y-121160000D03*
X103850000Y-121160000D03*
X96230000Y-118620000D03*
X103850000Y-123700000D03*
X96230000Y-116080000D03*
X103850000Y-126240000D03*
X96230000Y-113540000D03*
X103850000Y-128780000D03*
X96230000Y-111000000D03*
X103850000Y-131320000D03*
D14*
X96230000Y-108460000D03*
%TD*%
D13*
%TO.C,U1*%
X115350000Y-108460000D03*
X107730000Y-131320000D03*
X115350000Y-111000000D03*
X107730000Y-128780000D03*
X115350000Y-113540000D03*
X107730000Y-126240000D03*
X115350000Y-116080000D03*
X107730000Y-123700000D03*
X115350000Y-118620000D03*
X107730000Y-121160000D03*
X115350000Y-121160000D03*
X107730000Y-118620000D03*
X115350000Y-123700000D03*
X107730000Y-116080000D03*
X115350000Y-126240000D03*
X107730000Y-113540000D03*
X115350000Y-128780000D03*
X107730000Y-111000000D03*
X115350000Y-131320000D03*
D14*
X107730000Y-108460000D03*
%TD*%
D13*
%TO.C,SW1*%
X141350000Y-110960000D03*
X133730000Y-128740000D03*
X141350000Y-113500000D03*
X133730000Y-126200000D03*
X141350000Y-116040000D03*
X133730000Y-123660000D03*
X141350000Y-118580000D03*
X133730000Y-121120000D03*
X141350000Y-121120000D03*
X133730000Y-118580000D03*
X141350000Y-123660000D03*
X133730000Y-116040000D03*
X141350000Y-126200000D03*
X133730000Y-113500000D03*
X141350000Y-128740000D03*
D14*
X133730000Y-110960000D03*
%TD*%
D13*
%TO.C,RR1*%
X130230000Y-128780000D03*
X130230000Y-126240000D03*
X130230000Y-123700000D03*
X130230000Y-121160000D03*
X130230000Y-118620000D03*
X130230000Y-116080000D03*
X130230000Y-113540000D03*
X130230000Y-111000000D03*
D14*
X130230000Y-108460000D03*
%TD*%
D13*
%TO.C,R4*%
X48260000Y-75692000D03*
D11*
X48260000Y-83312000D03*
%TD*%
D13*
%TO.C,R2*%
X48260000Y-65532000D03*
D11*
X48260000Y-73152000D03*
%TD*%
D13*
%TO.C,R1*%
X48260000Y-62992000D03*
D11*
X48260000Y-55372000D03*
%TD*%
D17*
%TO.C,H2*%
X142000000Y-49000000D03*
%TD*%
D18*
%TO.C,H1*%
X48000000Y-49000000D03*
%TD*%
D19*
%TO.C,D2*%
X59888000Y-49750000D03*
D20*
X62428000Y-49750000D03*
%TD*%
D19*
%TO.C,D1*%
X51960000Y-49750000D03*
D20*
X54500000Y-49750000D03*
%TD*%
D11*
%TO.C,C2*%
X62484000Y-112522000D03*
X67484000Y-112522000D03*
%TD*%
%TO.C,C5*%
X103044000Y-104902000D03*
X98044000Y-104902000D03*
%TD*%
%TO.C,C3*%
X79422000Y-112522000D03*
X74422000Y-112522000D03*
%TD*%
%TO.C,C4*%
X86614000Y-105156000D03*
X91614000Y-105156000D03*
%TD*%
D12*
%TO.C,K1*%
X79248000Y-105156000D03*
X76708000Y-105156000D03*
D10*
X74168000Y-105156000D03*
%TD*%
%TO.C,K2*%
X110236000Y-92964000D03*
D12*
X110236000Y-95504000D03*
X110236000Y-98044000D03*
%TD*%
M02*
